<svg width="20" height="20" viewBox="0 0 20 20" fill="none" xmlns="http://www.w3.org/2000/svg">
<path d="M15.4293 7.47676L12.112 4.18235C12.0641 4.13444 11.9537 4.16706 11.8662 4.25178L3.11616 13.0712L3.11133 13.1052L6.61825 16.5295L15.3606 7.71704C15.4432 7.6351 15.4745 7.52467 15.4293 7.47676Z" fill="#8551DB"/>
<path d="M16.7001 6.19544L13.3827 2.90099C13.3348 2.85308 13.2244 2.8857 13.1369 2.9739L12.5119 3.61002L12.5063 3.64405L16.014 7.06765L16.6313 6.44263C16.7168 6.35375 16.748 6.24336 16.7001 6.19544Z" fill="#8551DB"/>
<path d="M17.8673 4.98461L14.55 1.69016C14.5021 1.64225 14.3917 1.67487 14.3042 1.75959L13.6791 2.39571L13.6743 2.42975L17.1812 5.85334L17.7986 5.22833C17.884 5.14291 17.9139 5.03253 17.8673 4.98461Z" fill="#8551DB"/>
<path d="M1.66992 17.918L3.1109 13.0312L6.61299 16.4896L1.66992 17.918ZM3.49771 14.3187L2.68035 16.9069L5.33868 16.1854L3.49771 14.3187Z" fill="#8551DB"/>
<path d="M18.0193 18.3333H1.6665L1.91861 17.5H18.0172L18.0193 18.3333Z" fill="#8551DB"/>
</svg>
