<svg width="18" height="18" viewBox="0 0 18 18" fill="none" xmlns="http://www.w3.org/2000/svg">
<path d="M17.6432 10.241L14.7152 7.81198C14.546 7.67339 14.334 7.59766 14.1152 7.59766C13.8965 7.59766 13.6845 7.67339 13.5152 7.81198L10.6232 10.241C10.5173 10.329 10.4319 10.4392 10.3732 10.5637C10.3145 10.6883 10.2837 10.8243 10.2832 10.962V14.762C10.2815 15.0065 10.3756 15.2419 10.5453 15.418C10.715 15.594 10.9468 15.6967 11.1912 15.704H17.0472C17.2954 15.7083 17.5352 15.6139 17.7138 15.4416C17.8925 15.2693 17.9955 15.0332 18.0002 14.785V10.962C17.9975 10.8229 17.9641 10.6862 17.9024 10.5615C17.8407 10.4369 17.7522 10.3274 17.6432 10.241ZM14.7382 11.66C14.8885 11.6602 15.0326 11.7201 15.1389 11.8263C15.2452 11.9326 15.305 12.0767 15.3052 12.227V14.798H13.0352V12.188C13.0366 12.0382 13.097 11.895 13.2034 11.7896C13.3097 11.6841 13.4535 11.625 13.6032 11.625L14.7382 11.66Z" fill="#9A9FA9"/>
<path d="M10.1237 2.426C10.1237 2.31354 10.0792 2.20563 10 2.12583C9.92077 2.04602 9.81319 2.00079 9.70073 2H9.52375C9.41031 1.99999 9.30144 2.04471 9.22076 2.12446C9.14008 2.20421 9.09409 2.31256 9.09277 2.426V3.39H10.1477L10.1237 2.426Z" fill="#9A9FA9"/>
<path d="M12.9719 3.39063H10.53V4.55363C10.5164 4.72671 10.4355 4.88756 10.3046 5.00162C10.1737 5.11568 10.0033 5.17385 9.82996 5.16363H9.49296C9.31976 5.17546 9.14891 5.11826 9.01775 5.00453C8.88658 4.89079 8.80577 4.72976 8.79296 4.55663V3.39063H4.76098V4.55363C4.74893 4.7273 4.66844 4.88909 4.53719 5.00346C4.40594 5.11783 4.23467 5.17544 4.06098 5.16363H3.72998C3.5563 5.17544 3.38502 5.11783 3.25377 5.00346C3.12253 4.88909 3.04204 4.7273 3.02999 4.55363V3.39063H0.487998C0.424044 3.39049 0.360691 3.40296 0.301556 3.42731C0.24242 3.45167 0.18866 3.48743 0.143345 3.53256C0.0980304 3.57769 0.0620481 3.6313 0.0374529 3.69034C0.0128577 3.74937 0.000131187 3.81267 0 3.87663V15.6496H9.40796V10.7826C9.41217 10.5825 9.45769 10.3854 9.54166 10.2037C9.62564 10.0219 9.74626 9.85953 9.89596 9.72663L12.8299 7.27563L13.5389 6.71063V3.94963C13.5371 3.80056 13.4765 3.65823 13.3704 3.55357C13.2642 3.4489 13.121 3.39035 12.9719 3.39063ZM3.18899 12.4706C2.96599 12.4694 2.74835 12.4022 2.5635 12.2775C2.37865 12.1528 2.23487 11.9761 2.15031 11.7698C2.06575 11.5634 2.04419 11.3367 2.08835 11.1181C2.1325 10.8995 2.2404 10.6989 2.39843 10.5416C2.55646 10.3842 2.75754 10.2772 2.97632 10.234C3.19509 10.1908 3.42175 10.2134 3.62772 10.2989C3.83368 10.3843 4.00972 10.5289 4.13363 10.7143C4.25755 10.8997 4.32378 11.1176 4.32398 11.3406C4.32372 11.4894 4.29415 11.6366 4.23695 11.7739C4.17976 11.9112 4.09607 12.0359 3.99066 12.1408C3.88525 12.2458 3.7602 12.3289 3.62264 12.3855C3.48509 12.4421 3.33773 12.471 3.18899 12.4706ZM3.18899 8.99763C2.96595 8.99644 2.74826 8.92922 2.56339 8.80444C2.37852 8.67967 2.23475 8.50293 2.15022 8.29653C2.06569 8.09013 2.04418 7.86332 2.08842 7.64471C2.13266 7.42611 2.24066 7.2255 2.39878 7.0682C2.55691 6.91091 2.75809 6.80398 2.97693 6.7609C3.19577 6.71782 3.42246 6.74053 3.62841 6.82615C3.83436 6.91178 4.01033 7.05648 4.13412 7.24201C4.25791 7.42755 4.32398 7.64559 4.32398 7.86863C4.32359 8.01728 4.29392 8.16441 4.23667 8.3016C4.17941 8.43879 4.0957 8.56335 3.99031 8.66819C3.88491 8.77303 3.7599 8.85608 3.62241 8.91261C3.48492 8.96913 3.33764 8.99802 3.18899 8.99763ZM6.47497 12.4706C6.25194 12.4696 6.03419 12.4026 5.84921 12.278C5.66423 12.1534 5.5203 11.9768 5.43558 11.7705C5.35087 11.5641 5.32917 11.3373 5.37321 11.1187C5.41725 10.9 5.52507 10.6993 5.68306 10.5419C5.84105 10.3845 6.04214 10.2774 6.26094 10.2341C6.47974 10.1908 6.70645 10.2133 6.91247 10.2988C7.1185 10.3842 7.2946 10.5288 7.41855 10.7142C7.54251 10.8996 7.60877 11.1176 7.60897 11.3406C7.6087 11.4893 7.57916 11.6364 7.52203 11.7737C7.4649 11.9109 7.3813 12.0356 7.276 12.1405C7.1707 12.2454 7.04576 12.3286 6.90832 12.3852C6.77088 12.4419 6.62363 12.4709 6.47497 12.4706ZM6.47497 8.99763C6.25189 8.99664 6.03411 8.92958 5.8491 8.80493C5.6641 8.68027 5.52017 8.5036 5.43549 8.29722C5.3508 8.09084 5.32916 7.86399 5.37328 7.64532C5.41741 7.42665 5.52533 7.22594 5.68342 7.06855C5.84151 6.91116 6.04268 6.80413 6.26155 6.76097C6.48041 6.71781 6.70716 6.74046 6.91317 6.82605C7.11917 6.91165 7.2952 7.05636 7.41904 7.24191C7.54287 7.42746 7.60896 7.64554 7.60897 7.86863C7.60817 8.16868 7.48828 8.45614 7.27565 8.66784C7.06301 8.87954 6.77502 8.99816 6.47497 8.99763Z" fill="#9A9FA9"/>
<path d="M4.3988 2.426C4.39749 2.31256 4.3515 2.20421 4.27081 2.12446C4.19012 2.04471 4.08123 1.99999 3.96778 2H3.76777C3.65554 2.00182 3.54844 2.04734 3.46925 2.1269C3.39006 2.20645 3.34504 2.31376 3.34375 2.426V3.39H4.3988V2.426Z" fill="#9A9FA9"/>
</svg>
