<svg width="121" height="32" viewBox="0 0 121 32" fill="none" xmlns="http://www.w3.org/2000/svg">
<path d="M21.8797 30.2263V24.4727L18.7783 25.3606L21.8797 30.2263Z" fill="url(#paint0_linear_747_5084)"/>
<path d="M10.543 20.1893L0.793945 31.9992C6.23576 31.4973 11.3225 29.109 15.1539 25.257L12.389 18.5781L10.543 20.1893Z" fill="url(#paint1_linear_747_5084)"/>
<path d="M32.4624 9.88874C32.466 8.72063 32.2668 7.56055 31.8732 6.4591C31.1007 4.26592 29.6045 2.39312 27.6252 1.14166C26.7157 0.609587 25.7112 0.255224 24.6664 0.0978514C24.3411 0.0350367 24.0104 0.00308159 23.6789 0.00241905C23.0075 -0.0174685 22.3382 0.085409 21.7046 0.305869C21.3586 0.445399 21.0322 0.62859 20.7337 0.850884C20.2491 1.2157 19.8515 1.68123 19.5689 2.21458C19.2863 2.74794 19.1256 3.33611 19.0982 3.93756C18.6876 4.1169 18.3463 4.4221 18.1249 4.80801C17.9034 5.19392 17.8135 5.64003 17.8685 6.08035C18.4476 5.8173 19.0844 5.70261 19.7202 5.74686C20.3559 5.79112 20.9702 5.99289 21.5063 6.33356C22.0423 6.67424 22.483 7.14284 22.7875 7.69616C23.0921 8.24947 23.2508 8.86967 23.2489 9.49955V9.69042C23.2516 9.73735 23.2516 9.7844 23.2489 9.83133C23.23 9.95883 23.1953 10.0789 23.1305 10.3368C23.1305 10.3368 15.0169 12.666 6.68457 24.9725L10.1088 24.8875C10.1088 24.8875 9.91264 26.1154 9.91264 26.2459C10.0416 26.1796 23.783 30.1885 30.7853 17.3206C31.9087 15.0015 32.4822 12.4598 32.4624 9.88874Z" fill="url(#paint2_linear_747_5084)"/>
<path d="M32.461 9.88672C22.4728 9.91356 14.0077 15.5762 10.0848 24.8892C10.0177 25.1553 9.88867 26.2476 9.88867 26.2476C21.9937 28.7677 28.4046 22.0418 30.7614 17.3223C31.8931 15.0039 32.4744 12.4608 32.461 9.88672Z" fill="url(#paint3_linear_747_5084)"/>
<path d="M19.2529 30.773H24.3398C24.0267 30.4083 23.637 30.1153 23.1978 29.9144C22.7586 29.7134 22.2804 29.6094 21.7964 29.6094C21.3124 29.6094 20.8342 29.7134 20.395 29.9144C19.9558 30.1153 19.5661 30.4083 19.2529 30.773Z" fill="url(#paint4_linear_747_5084)"/>
<path d="M27.6412 13.3983C27.3388 12.0501 26.6549 10.8147 25.6692 9.83594C15.523 11.505 6.37068 16.8522 0 24.8332C0 24.8332 11.9497 27.0267 22.7074 22.6635L22.9224 22.5808C24.6881 21.8584 26.1342 20.5357 26.9996 18.8518C27.865 17.1678 28.0925 15.2335 27.6412 13.3983Z" fill="url(#paint5_linear_747_5084)"/>
<path opacity="0.25" d="M27.8616 14.9409C27.8407 14.4182 27.7669 13.899 27.6413 13.3908C27.3375 12.0453 26.6537 10.8126 25.6693 9.83594C25.1311 9.92392 24.593 10.0213 24.0549 10.1282C24.8799 11.0654 25.4599 12.1882 25.744 13.3983C26.1959 15.2329 25.9693 17.1668 25.1051 18.8508C24.2409 20.5348 22.796 21.858 21.0312 22.5815L20.8162 22.6643C16.2207 24.4289 11.3373 25.3479 6.40723 25.3759C11.9715 25.5564 17.5161 24.6344 22.7143 22.6643L22.9293 22.5815C24.4443 21.9607 25.7297 20.8949 26.6116 19.5283C27.4935 18.1617 27.9293 16.5603 27.8601 14.9409H27.8616Z" fill="#F7F5F9"/>
<path d="M1.15723 23.3988C7.43382 23.3026 15.8401 22.3348 19.3126 18.5264C22.0857 15.4979 21.7983 12.866 20.9511 10.8828C13.2836 13.1106 6.41735 17.4522 1.15723 23.3988Z" fill="url(#paint6_linear_747_5084)"/>
<path opacity="0.25" d="M17.2116 18.5943C14.1555 21.9307 7.0702 23.114 1.15723 23.3958C7.41194 23.284 15.8831 22.2715 19.3126 18.5264C22.0857 15.4979 21.7983 12.866 20.9511 10.8828C20.3164 11.0603 19.6968 11.2534 19.0923 11.4621C19.8105 13.429 19.7939 15.7678 17.2116 18.5943Z" fill="#F7F5F9"/>
<path opacity="0.1" d="M14.6399 13.2734C8.92004 15.9467 3.91143 19.904 0.0136719 24.8299C0.0136719 24.8299 1.32406 25.0692 3.47033 25.234H3.53671C3.34911 24.9041 3.24633 24.5338 3.23738 24.1555C3.22844 23.7772 3.31361 23.4025 3.48541 23.0643C5.12095 19.5132 12.5307 14.608 14.6399 13.2734Z" fill="url(#paint7_linear_747_5084)"/>
<path opacity="0.27" d="M22.8251 3.80819C23.4296 3.80819 23.9197 3.32384 23.9197 2.72636C23.9197 2.12888 23.4296 1.64453 22.8251 1.64453C22.2206 1.64453 21.7305 2.12888 21.7305 2.72636C21.7305 3.32384 22.2206 3.80819 22.8251 3.80819Z" fill="url(#paint8_radial_747_5084)" stroke="#707070" stroke-miterlimit="10"/>
<path d="M22.8263 3.75906C23.4029 3.75906 23.8704 3.29708 23.8704 2.72719C23.8704 2.1573 23.4029 1.69531 22.8263 1.69531C22.2497 1.69531 21.7822 2.1573 21.7822 2.72719C21.7822 3.29708 22.2497 3.75906 22.8263 3.75906Z" fill="white"/>
<path d="M22.7073 3.49847C23.031 3.49847 23.2934 3.2391 23.2934 2.91916C23.2934 2.59921 23.031 2.33984 22.7073 2.33984C22.3835 2.33984 22.1211 2.59921 22.1211 2.91916C22.1211 3.2391 22.3835 3.49847 22.7073 3.49847Z" fill="url(#paint9_radial_747_5084)"/>
<path opacity="0.97" d="M22.4403 3.19391C22.5724 3.19391 22.6795 3.08929 22.6795 2.96024C22.6795 2.83118 22.5724 2.72656 22.4403 2.72656C22.3082 2.72656 22.2012 2.83118 22.2012 2.96024C22.2012 3.08929 22.3082 3.19391 22.4403 3.19391Z" fill="url(#paint10_linear_747_5084)"/>
<path d="M42.1826 22.3215V6.03516H45.4837V12.3704H50.1949V6.03516H53.5489V22.3128H50.1949V15.0645H45.4837V22.3215H42.1826Z" fill="#232323"/>
<path d="M57.0694 16.3736C56.9882 14.7274 57.5175 13.1084 58.5579 11.8202C59.0405 11.2565 59.6464 10.8086 60.3298 10.5102C61.0131 10.2117 61.7562 10.0707 62.5028 10.0976C63.2821 10.0676 64.0578 10.2146 64.7706 10.5272C65.4833 10.8399 66.114 11.3099 66.6143 11.9012C67.6006 13.1457 68.096 14.702 68.0085 16.2805C68.1079 17.9523 67.5741 19.6009 66.5112 20.9053C66.0114 21.4607 65.3926 21.8991 64.6998 22.1885C64.0071 22.4779 63.2577 22.611 62.5064 22.5783C61.7632 22.6063 61.0231 22.4694 60.3405 22.1778C59.6579 21.8862 59.0499 21.4472 58.5614 20.8931C57.5158 19.6207 56.9843 18.0106 57.0694 16.3736ZM63.9226 13.0493C63.7607 12.845 63.5517 12.682 63.3129 12.574C63.0741 12.466 62.8127 12.4162 62.5504 12.4287C62.1783 12.4155 61.813 12.5295 61.516 12.7515C61.219 12.9735 61.0086 13.2899 60.9201 13.6473C60.67 14.5148 60.5589 15.4156 60.5907 16.317C60.5359 17.3492 60.6766 18.3825 61.0055 19.3637C61.1322 19.6707 61.3553 19.9295 61.642 20.1019C61.9287 20.2743 62.2638 20.3511 62.598 20.3212C63.9068 20.3212 64.5612 18.976 64.5612 16.2857C64.5606 14.6724 64.3477 13.5936 63.9226 13.0493Z" fill="#232323"/>
<path d="M71.5507 13.9623C71.6316 12.9198 71.4782 11.8726 71.1016 10.8956L73.9596 10.1227C74.1662 10.5032 74.3073 10.915 74.3771 11.3413C74.7628 10.954 75.2228 10.6467 75.7302 10.4374C76.2377 10.2282 76.7823 10.1212 77.3321 10.1227C77.7883 10.1086 78.2424 10.1889 78.6654 10.3583C79.0884 10.5276 79.4709 10.7824 79.7885 11.1063C79.961 11.2881 80.1185 11.4831 80.2598 11.6895C80.6907 11.2101 81.2179 10.8246 81.8077 10.5574C82.3976 10.2902 83.0372 10.1472 83.6859 10.1375C84.1419 10.1111 84.5986 10.1741 85.0298 10.3227C85.461 10.4714 85.8583 10.7027 86.1988 11.0036C86.8163 11.8052 87.0965 12.8116 86.9809 13.8126V22.3379H83.8938V14.4167C83.915 14.0243 83.8833 13.6309 83.7996 13.2468C83.7331 13.0702 83.6082 12.921 83.4451 12.8235C83.282 12.726 83.0903 12.6859 82.9012 12.7097C82.0989 12.7791 81.3503 13.1368 80.797 13.7151V22.3327H77.798V14.5237C77.822 14.0992 77.7819 13.6735 77.6791 13.2607C77.6088 13.0688 77.4747 12.9063 77.2986 12.7997C77.1226 12.6931 76.9151 12.6488 76.7103 12.674C75.9261 12.7105 75.1842 13.036 74.6308 13.5862V22.3205H71.5481L71.5507 13.9623Z" fill="#232323"/>
<path d="M90.1448 7.03303C90.154 6.51888 90.3671 6.02886 90.7382 5.66843C91.1094 5.308 91.6088 5.10597 92.1291 5.10583C92.3829 5.10083 92.6348 5.14817 92.869 5.24485C93.1031 5.34152 93.3143 5.48539 93.4891 5.66727C93.6697 5.84951 93.8117 6.0656 93.9067 6.30282C94.0017 6.54005 94.0477 6.79364 94.0422 7.04871C94.0459 7.30278 93.9977 7.55497 93.9005 7.79023C93.8034 8.02549 93.6592 8.23898 93.4767 8.41794C93.2978 8.60466 93.0813 8.75226 92.8412 8.85121C92.6011 8.95016 92.3426 8.99828 92.0825 8.99245C91.8246 8.99491 91.5691 8.94362 91.3327 8.84193C91.0963 8.74024 90.8842 8.59043 90.7102 8.40228C90.5273 8.22364 90.3828 8.01021 90.2856 7.77488C90.1884 7.53954 90.1405 7.28718 90.1448 7.03303ZM90.4971 22.3236V10.5462L93.6626 10.0527V22.3262L90.4971 22.3236Z" fill="#232323"/>
<path d="M97.182 13.6349C97.2 12.6867 97.0556 11.7423 96.7549 10.8416L99.5813 10.0469C99.8612 10.4981 100.016 11.0141 100.03 11.5432C100.313 11.336 100.777 11.0401 101.422 10.6553C102.087 10.3021 102.831 10.1196 103.586 10.1244C104.227 10.1148 104.857 10.2814 105.408 10.6057C105.905 10.8821 106.289 11.321 106.494 11.847C106.671 12.3998 106.75 12.9782 106.73 13.5575V22.3135H103.611V14.5263C103.636 14.1151 103.588 13.7027 103.47 13.3076C103.398 13.1298 103.268 12.9805 103.101 12.8829C102.934 12.7854 102.739 12.7449 102.547 12.7679C101.705 12.8498 100.922 13.2327 100.345 13.8447V22.3213H97.1794L97.182 13.6349Z" fill="#232323"/>
<path d="M120.777 11.1454C120.784 10.7879 120.86 10.435 121 10.1052H118.223C118.097 10.3533 118.024 10.625 118.01 10.9026C117.709 10.5667 117.336 10.3026 116.917 10.13C116.498 9.95736 116.045 9.88074 115.592 9.90588C114.489 9.84553 113.397 10.1534 112.493 10.78C111.588 11.4066 110.923 12.3155 110.604 13.3608C110.181 15.1073 110.147 16.9239 110.506 18.6845C110.506 18.6845 111.263 22.0985 114.686 22.3135C115.73 22.4256 116.777 22.1391 117.613 21.5127L117.691 21.3795C117.731 21.9591 117.731 22.5407 117.691 23.1204C117.652 23.5149 117.473 23.883 117.185 24.1597C116.898 24.4363 116.521 24.6037 116.121 24.6324C114.507 24.7809 112.881 24.5237 111.394 23.8847L110.848 26.409C110.848 26.409 113.119 27.6503 117.24 27.0732C121.361 26.4961 120.729 22.2778 120.786 21.8835C120.786 20.7049 120.777 11.1454 120.777 11.1454ZM117.694 18.9491C117.395 19.3091 116.996 19.5751 116.547 19.7142C116.097 19.8534 115.616 19.8598 115.163 19.7326C113.857 19.3043 113.709 17.6687 113.725 15.7998C113.74 13.9309 114.089 12.9812 115.398 12.553C115.816 12.4555 116.253 12.4759 116.659 12.612C117.065 12.748 117.425 12.9942 117.697 13.3225L117.694 18.9491Z" fill="#232323"/>
<defs>
<linearGradient id="paint0_linear_747_5084" x1="-171.451" y1="-60.2778" x2="-170.665" y2="-69.5284" gradientUnits="userSpaceOnUse">
<stop stop-color="#88308C"/>
<stop offset="0.37" stop-color="#2E3191"/>
<stop offset="0.97" stop-color="#00ADEE"/>
</linearGradient>
<linearGradient id="paint1_linear_747_5084" x1="0.793945" y1="25.2887" x2="15.1539" y2="25.2887" gradientUnits="userSpaceOnUse">
<stop stop-color="#88308C"/>
<stop offset="0.37" stop-color="#2E3191"/>
<stop offset="0.97" stop-color="#00ADEE"/>
</linearGradient>
<linearGradient id="paint2_linear_747_5084" x1="19.3933" y1="19.2324" x2="26.5339" y2="-5.67211" gradientUnits="userSpaceOnUse">
<stop stop-color="#88308C"/>
<stop offset="0.43" stop-color="#2E3191"/>
<stop offset="0.97" stop-color="#00ADEE"/>
</linearGradient>
<linearGradient id="paint3_linear_747_5084" x1="30.994" y1="10.4447" x2="16.7118" y2="34.1293" gradientUnits="userSpaceOnUse">
<stop stop-color="#88308C"/>
<stop offset="0.37" stop-color="#2E3191"/>
<stop offset="0.97" stop-color="#00ADEE"/>
</linearGradient>
<linearGradient id="paint4_linear_747_5084" x1="19.2529" y1="30.1912" x2="24.3398" y2="30.1912" gradientUnits="userSpaceOnUse">
<stop stop-color="#88308C"/>
<stop offset="0.37" stop-color="#2E3191"/>
</linearGradient>
<linearGradient id="paint5_linear_747_5084" x1="2.36876" y1="38.7097" x2="22.9505" y2="15.2878" gradientUnits="userSpaceOnUse">
<stop stop-color="#88308C"/>
<stop offset="0.37" stop-color="#2E3191"/>
<stop offset="0.97" stop-color="#00ADEE"/>
<stop offset="1" stop-color="#00ADEE"/>
</linearGradient>
<linearGradient id="paint6_linear_747_5084" x1="1.25914" y1="21.0207" x2="15.2203" y2="10.1352" gradientUnits="userSpaceOnUse">
<stop stop-color="#88308C"/>
<stop offset="0.37" stop-color="#2E3191"/>
<stop offset="0.97" stop-color="#00ADEE"/>
</linearGradient>
<linearGradient id="paint7_linear_747_5084" x1="26.107" y1="18.6317" x2="8.51441" y2="19.5966" gradientUnits="userSpaceOnUse">
<stop stop-color="#88308C"/>
<stop offset="0.37" stop-color="#2E3191"/>
<stop offset="0.97" stop-color="#00ADEE"/>
</linearGradient>
<radialGradient id="paint8_radial_747_5084" cx="0" cy="0" r="1" gradientUnits="userSpaceOnUse" gradientTransform="translate(22.8251 2.72636) scale(1.09463 1.08183)">
<stop offset="0.05" stop-color="#262262"/>
<stop offset="0.18" stop-color="#262262"/>
<stop offset="0.29" stop-color="#2E3191"/>
</radialGradient>
<radialGradient id="paint9_radial_747_5084" cx="0" cy="0" r="1" gradientUnits="userSpaceOnUse" gradientTransform="translate(22.7073 2.91916) scale(1.72568 1.70549)">
<stop offset="0.05" stop-color="#262262"/>
<stop offset="0.48" stop-color="#2E3191"/>
</radialGradient>
<linearGradient id="paint10_linear_747_5084" x1="-372" y1="-171.109" x2="-371.404" y2="-170.863" gradientUnits="userSpaceOnUse">
<stop stop-color="#F1F2F2"/>
<stop offset="1" stop-color="#F1F2F2" stop-opacity="0.769"/>
</linearGradient>
</defs>
</svg>
