<svg width="18" height="16" viewBox="0 0 18 16" fill="none" xmlns="http://www.w3.org/2000/svg">
<path d="M17.8301 0.0107552L11.3507 3.33361C11.3352 3.34139 11.3181 3.34542 11.3008 3.34542C11.2834 3.34542 11.2663 3.34139 11.2509 3.33361L5.63089 0.517241C5.61536 0.509342 5.59821 0.505253 5.58073 0.505253C5.56324 0.505253 5.546 0.509342 5.53047 0.517241L0.0686539 3.32324C0.047484 3.33482 0.0299674 3.35185 0.0179383 3.37255C0.00590928 3.39324 -0.000130642 3.41676 0.000453356 3.4406V15.8009C-0.00140314 15.8218 0.00246599 15.8429 0.0116218 15.8619C0.0207776 15.8809 0.0348907 15.8971 0.0525421 15.9089C0.0701936 15.9207 0.0907507 15.9277 0.112046 15.9291C0.133341 15.9305 0.15457 15.9263 0.173655 15.9169L5.46895 12.992C5.485 12.9832 5.50303 12.9786 5.5214 12.9786C5.53978 12.9786 5.5579 12.9832 5.57395 12.992L11.3679 15.987C11.3839 15.9956 11.4019 16 11.4201 16C11.4383 16 11.4562 15.9956 11.4722 15.987L17.9328 12.4382C17.9532 12.4263 17.9701 12.4093 17.9817 12.389C17.9933 12.3686 17.9992 12.3456 17.9988 12.3223V0.134785C18.0018 0.113788 17.999 0.0923528 17.9908 0.0727703C17.9825 0.0531877 17.969 0.0361535 17.9518 0.0234647C17.9345 0.0107759 17.9141 0.00290469 17.8927 0.000659743C17.8713 -0.00158521 17.8497 0.00192821 17.8301 0.0107552V0.0107552ZM11.3012 14.5655L6.08541 11.8143C5.90993 11.7242 5.58741 11.5668 5.58741 11.5668V1.92024L10.753 4.5091C10.9232 4.59476 11.3004 4.76978 11.3004 4.76978L11.3012 14.5655Z" fill="#9A9FA9"/>
</svg>
