<svg width="18" height="18" viewBox="0 0 18 18" fill="none" xmlns="http://www.w3.org/2000/svg">
<path d="M7.83794 15.8389C6.80572 15.8397 5.78329 15.6353 4.83094 15.2373C3.87858 14.8394 3.01543 14.256 2.29091 13.521C0.822633 12.0266 0 10.0156 0 7.92091C0 5.82627 0.822633 3.81574 2.29091 2.3213C3.01429 1.58464 3.87739 0.999657 4.82996 0.601087C5.78253 0.202518 6.80529 -0.00189197 7.83794 1.31958e-05C8.87043 -0.00187082 9.89254 0.202515 10.8449 0.601087C11.7973 0.99966 12.6608 1.58467 13.384 2.3213C14.8527 3.81549 15.6759 5.82611 15.6759 7.92091C15.6759 10.0157 14.8527 12.0268 13.384 13.521C12.6597 14.256 11.7962 14.8398 10.844 15.2378C9.89176 15.6358 8.87002 15.8398 7.83794 15.8389ZM7.83794 1.58888C7.0131 1.58725 6.19653 1.75048 5.43566 2.06886C4.67479 2.38724 3.98525 2.85436 3.40754 3.44288C2.23328 4.637 1.57482 6.24451 1.57482 7.91896C1.57482 9.5934 2.23328 11.2009 3.40754 12.395C3.98678 12.9813 4.67606 13.447 5.43664 13.7647C6.19721 14.0824 7.01364 14.2456 7.83794 14.2456C8.66224 14.2456 9.47867 14.0824 10.2392 13.7647C10.9998 13.447 11.6891 12.9813 12.2683 12.395C13.4424 11.2008 14.1001 9.59333 14.1001 7.91896C14.1001 6.24459 13.4424 4.63713 12.2683 3.44288C11.6902 2.85491 11.001 2.38818 10.2402 2.06984C9.47944 1.75149 8.66268 1.58792 7.83794 1.58888Z" fill="#9A9FA9"/>
<path d="M12.1747 8.38722C12.0681 8.38723 11.9662 8.3454 11.8904 8.27052C11.8145 8.19565 11.7715 8.09386 11.7702 7.98732C11.7717 7.46725 11.6701 6.95229 11.4713 6.4717C11.2724 5.99111 10.9801 5.55461 10.6116 5.18752C10.2446 4.81858 9.80769 4.52595 9.3269 4.32668C8.84612 4.1274 8.33118 4.02529 7.8107 4.02638C7.70411 4.02639 7.60128 3.98456 7.52544 3.90968C7.4496 3.83481 7.40659 3.73302 7.40527 3.62648C7.40659 3.51994 7.4496 3.41815 7.52544 3.34328C7.60128 3.2684 7.70411 3.22657 7.8107 3.22658C8.43815 3.22498 9.05898 3.34758 9.63854 3.58791C10.2181 3.82823 10.7449 4.18139 11.187 4.62648C11.6322 5.06825 11.9851 5.59369 12.2255 6.17287C12.4659 6.75204 12.5884 7.37345 12.5869 8.0005C12.5835 8.10643 12.5382 8.20675 12.4609 8.27931C12.3836 8.35187 12.2806 8.39046 12.1747 8.38722Z" fill="#9A9FA9"/>
<path d="M16.8695 17.9971C16.7209 17.9971 16.5741 17.9676 16.4368 17.9106C16.2994 17.8537 16.1744 17.7703 16.0694 17.665L12.2916 14.0591C12.0803 13.8464 11.9614 13.5586 11.9614 13.2588C11.9614 12.959 12.0803 12.6716 12.2916 12.459C12.5044 12.2477 12.7919 12.1289 13.0917 12.1289C13.3916 12.1289 13.6791 12.2477 13.8918 12.459L17.6706 16.0649C17.8818 16.2777 17.9999 16.5651 17.9999 16.8647C17.9999 17.1644 17.8818 17.4523 17.6706 17.665C17.4583 17.8772 17.1697 17.9966 16.8695 17.9971Z" fill="#9A9FA9"/>
</svg>
