<svg width="18" height="19" viewBox="0 0 18 19" fill="none" xmlns="http://www.w3.org/2000/svg">
<path fill-rule="evenodd" clip-rule="evenodd" d="M14.7946 2.11238C13.0697 0.660557 10.8632 -0.0902154 8.61172 0.00865913C6.63507 0.0954642 4.75024 0.831592 3.24282 2.09097L1.40898 0.255427C1.08889 -0.06496 0.569923 -0.06496 0.249833 0.255427C-0.0702569 0.575814 -0.0702569 1.09526 0.249833 1.41565L2.6324 3.80044L2.63844 3.80652L2.64274 3.81078L5.50542 6.67612C5.51206 6.68327 5.51885 6.69033 5.52579 6.6973C5.53329 6.70482 5.54089 6.71217 5.5486 6.71935L8.40719 9.58059C8.72728 9.90098 9.24625 9.90098 9.56634 9.58059C9.81285 9.33385 9.86952 8.96904 9.73633 8.66802L9.1371 5.753C9.73978 5.78215 10.3257 5.9789 10.8271 6.32541C11.4523 6.75749 11.9065 7.39512 12.1109 8.12756C12.3153 8.85999 12.2569 9.64094 11.9458 10.3348C11.6348 11.0286 11.0908 11.5914 10.4083 11.9255C9.72578 12.2596 8.94791 12.3439 8.2098 12.1636C7.47169 11.9834 6.81997 11.5501 6.36785 10.9389C5.91573 10.3278 5.69177 9.5774 5.73488 8.81816C5.76057 8.36579 5.41502 7.97824 4.96307 7.95253C4.51113 7.92682 4.12393 8.27269 4.09824 8.72506C4.03339 9.86719 4.37029 10.996 5.05042 11.9153C5.73055 12.8347 6.71094 13.4866 7.82129 13.7577C8.93163 14.0288 10.1018 13.9021 11.1285 13.3995C12.1552 12.8969 12.9736 12.0502 13.4415 11.0065C13.9094 9.96277 13.9972 8.78798 13.6898 7.68618C13.3823 6.58437 12.699 5.62517 11.7585 4.97518C10.8892 4.37438 9.85084 4.07286 8.79971 4.11174L8.29878 1.67491C8.42649 1.66257 8.55479 1.65354 8.68357 1.64789C10.5247 1.56703 12.3291 2.18097 13.7395 3.36817C15.15 4.55538 16.0638 6.22934 16.3 8.05873C16.5362 9.88811 16.0777 11.7396 15.0151 13.2467C13.9526 14.7539 12.3635 15.8068 10.5623 16.1972C8.76117 16.5875 6.87924 16.2868 5.28902 15.3546C3.69879 14.4224 2.51617 12.9266 1.97522 11.1632C1.43427 9.39987 1.57442 7.4975 2.36792 5.83264C2.56283 5.4237 2.38964 4.93403 1.98107 4.73894C1.57251 4.54385 1.0833 4.71721 0.888385 5.12615C-0.0819866 7.16209 -0.253371 9.48847 0.408149 11.6448C1.06967 13.8012 2.51589 15.6304 4.46056 16.7705C6.40522 17.9105 8.70662 18.2782 10.9092 17.8008C13.1118 17.3235 15.0551 16.0358 16.3545 14.1928C17.6539 12.3497 18.2146 10.0855 17.9257 7.8484C17.6369 5.61126 16.5194 3.5642 14.7946 2.11238Z" fill="#9A9FA9"/>
</svg>
