<svg width="17" height="14" viewBox="0 0 17 14" fill="none" xmlns="http://www.w3.org/2000/svg">
<path d="M16.0347 2.90453C15.9838 3.17504 15.9407 3.44555 15.8858 3.71606C15.6388 4.8922 15.1879 5.99386 14.5959 7.03278C13.161 9.55364 11.2361 11.6432 8.93869 13.3957C8.62505 13.6348 8.29573 13.8622 7.89977 13.9524C7.26857 14.0935 6.71578 13.9054 6.21788 13.5251C5.64941 13.0938 5.24953 12.5332 5.02214 11.8589C4.59089 10.5612 4.18708 9.25568 3.76367 7.95409C3.41082 6.8642 3.05406 5.77823 2.6973 4.69226C2.65025 4.55504 2.59145 4.42175 2.5248 4.29237C2.39542 4.04146 2.20724 3.95521 1.92889 4.01402C1.50548 4.10419 1.14871 4.32766 0.79979 4.56681C0.752745 4.59817 0.705699 4.63345 0.646892 4.67266C0.431266 4.38646 0.21564 4.10811 -0.00390625 3.81408C0.301891 3.48868 0.595926 3.15936 0.901723 2.84964C1.69758 2.04202 2.53264 1.28145 3.51276 0.693384C3.9048 0.458156 4.31253 0.273894 4.75947 0.164121C5.40242 0.00338142 5.98265 0.258212 6.33942 0.850202C6.6805 1.41475 6.85692 2.04202 6.98237 2.68106C7.15096 3.54356 7.27249 4.41783 7.46067 5.27641C7.68414 6.29573 7.92329 7.31505 8.3271 8.28341C8.3859 8.42455 8.46431 8.56568 8.5584 8.68722C8.70738 8.88716 8.87988 8.92245 9.06807 8.76171C9.31505 8.55 9.56204 8.32261 9.75807 8.06778C10.3265 7.33074 10.8009 6.53488 11.1969 5.69198C11.3929 5.27641 11.4831 4.8334 11.4007 4.37078C11.2792 3.66902 10.7147 3.27697 10.0207 3.44947C9.74631 3.51612 9.48363 3.63766 9.1896 3.73959C9.26409 3.48084 9.31898 3.2064 9.42091 2.95549C10.0639 1.3677 11.2478 0.418951 12.9101 0.0700294C13.5648 -0.067187 14.2196 -0.0240618 14.8312 0.289576C15.4702 0.614974 15.823 1.156 15.9681 1.846C15.9877 1.94793 16.0112 2.04987 16.0308 2.1518C16.0347 2.40271 16.0347 2.65362 16.0347 2.90453Z" fill="#41B2DC"/>
</svg>
 