<svg width="151" height="128" viewBox="0 0 151 128" fill="none" xmlns="http://www.w3.org/2000/svg">
<path d="M75.4298 121.716C109.041 121.716 136.288 94.4689 136.288 60.858C136.288 27.2471 109.041 0 75.4298 0C41.8188 0 14.5718 27.2471 14.5718 60.858C14.5718 94.4689 41.8188 121.716 75.4298 121.716Z" fill="#F3F3F3"/>
<path d="M145.928 92.6303C147.141 92.6303 148.124 91.6471 148.124 90.4343C148.124 89.2215 147.141 88.2383 145.928 88.2383C144.715 88.2383 143.732 89.2215 143.732 90.4343C143.732 91.6471 144.715 92.6303 145.928 92.6303Z" fill="#EAEAEA"/>
<path d="M142.348 83.2675C144.533 83.2675 146.304 81.4963 146.304 79.3115C146.304 77.1266 144.533 75.3555 142.348 75.3555C140.163 75.3555 138.392 77.1266 138.392 79.3115C138.392 81.4963 140.163 83.2675 142.348 83.2675Z" fill="#EAEAEA"/>
<path d="M135.77 92.1557C137.191 92.1557 138.342 91.0042 138.342 89.5837C138.342 88.1632 137.191 87.0117 135.77 87.0117C134.35 87.0117 133.198 88.1632 133.198 89.5837C133.198 91.0042 134.35 92.1557 135.77 92.1557Z" fill="#F4F4F4"/>
<path d="M146.085 52.8325V43.3125H143.722V52.8325H146.085Z" fill="#E2E2E2"/>
<path d="M140.143 49.2539H149.663V46.8909H140.143V49.2539Z" fill="#E2E2E2"/>
<path d="M146.953 32.7248V24.4648H144.902V32.7248H146.953Z" fill="#E2E2E2"/>
<path d="M141.798 29.6211H150.058V27.5701H141.798V29.6211Z" fill="#E2E2E2"/>
<path d="M22.526 95.0156H12.168V96.6236H22.526V95.0156Z" fill="#EDEDED"/>
<path d="M18.1509 100.999V90.6406H16.5429V100.999H18.1509Z" fill="#EDEDED"/>
<path d="M14.5522 79.7617H1.34521V81.8127H14.5522V79.7617Z" fill="#F4F4F4"/>
<path d="M8.97412 87.3906V74.1836H6.92312L6.92312 87.3906H8.97412Z" fill="#F4F4F4"/>
<path d="M22.5261 18.5835C25.9718 18.5835 28.7651 15.7902 28.7651 12.3445C28.7651 8.89876 25.9718 6.10547 22.5261 6.10547C19.0804 6.10547 16.2871 8.89876 16.2871 12.3445C16.2871 15.7902 19.0804 18.5835 22.5261 18.5835Z" fill="#F4F4F4"/>
<path d="M4.056 51.2683C6.29607 51.2683 8.112 49.4523 8.112 47.2123C8.112 44.9722 6.29607 43.1562 4.056 43.1562C1.81593 43.1562 0 44.9722 0 47.2123C0 49.4523 1.81593 51.2683 4.056 51.2683Z" fill="#E8E8E8"/>
<path opacity="0.12" d="M76.1298 14.293C66.3118 14.293 58.3237 22.677 58.3237 32.982V49.877H62.1317V32.983C62.1317 24.777 68.4117 18.101 76.1317 18.101C83.8517 18.101 90.1317 24.777 90.1317 32.983C90.1317 33.4879 90.3323 33.9722 90.6894 34.3293C91.0465 34.6864 91.5307 34.887 92.0357 34.887C92.5407 34.887 93.025 34.6864 93.3821 34.3293C93.7392 33.9722 93.9398 33.4879 93.9398 32.983C93.9358 22.677 85.9478 14.293 76.1298 14.293Z" fill="black"/>
<path d="M89.3569 32.9367C88.853 32.9367 88.3697 32.7366 88.0134 32.3802C87.6571 32.0239 87.4569 31.5407 87.4569 31.0367C87.4569 22.8307 81.1769 16.1557 73.4569 16.1557C65.7369 16.1557 59.4569 22.8317 59.4569 31.0367V46.6517C59.4569 47.1567 59.2563 47.641 58.8992 47.998C58.5422 48.3551 58.0579 48.5557 57.5529 48.5557C57.0479 48.5557 56.5637 48.3551 56.2066 47.998C55.8495 47.641 55.6489 47.1567 55.6489 46.6517V31.0327C55.6489 20.7277 63.6369 12.3438 73.4549 12.3438C83.2729 12.3438 91.2609 20.7277 91.2609 31.0327C91.2615 31.2829 91.2126 31.5307 91.1171 31.762C91.0216 31.9932 90.8813 32.2033 90.7044 32.3802C90.5275 32.5572 90.3174 32.6973 90.0862 32.7928C89.8549 32.8883 89.6071 32.9372 89.3569 32.9367Z" fill="#8C8C8C"/>
<path d="M73.4551 16.1517C81.1731 16.1517 87.4551 22.8278 87.4551 31.0328C87.4551 31.5377 87.6557 32.022 88.0128 32.3791C88.3698 32.7362 88.8542 32.9368 89.3591 32.9368C89.8641 32.9368 90.3484 32.7362 90.7054 32.3791C91.0625 32.022 91.2631 31.5377 91.2631 31.0328C91.2631 20.7278 83.2751 12.3438 73.4571 12.3438L73.4551 16.1517Z" fill="#ADADAD"/>
<path opacity="0.12" d="M93.653 41.8477H58.3239V41.9186C56.8013 42.3352 55.4579 43.2406 54.5002 44.4955C53.5426 45.7503 53.0239 47.2851 53.0239 48.8636V72.1636C53.0239 74.0732 53.7825 75.9046 55.1328 77.2548C56.483 78.6051 58.3144 79.3636 60.2239 79.3636H92.0319C93.9415 79.3636 95.7728 78.6051 97.1231 77.2548C98.4734 75.9046 99.2319 74.0732 99.2319 72.1636V48.8636C99.2321 47.2357 98.6806 45.6558 97.6674 44.3816C96.6542 43.1074 95.2391 42.2142 93.653 41.8477ZM76.1309 64.4767C75.0271 64.4767 73.9481 64.1493 73.0303 63.5361C72.1125 62.9228 71.3972 62.0512 70.9748 61.0314C70.5524 60.0116 70.4418 58.8895 70.6572 57.8069C70.8725 56.7243 71.4041 55.7298 72.1846 54.9493C72.9651 54.1688 73.9595 53.6372 75.0421 53.4219C76.1247 53.2065 77.2469 53.3171 78.2667 53.7395C79.2865 54.1619 80.1581 54.8773 80.7714 55.795C81.3846 56.7128 81.7119 57.7918 81.7119 58.8956C81.7119 59.6286 81.5675 60.3544 81.287 61.0316C81.0065 61.7088 80.5953 62.3241 80.077 62.8423C79.5586 63.3606 78.9432 63.7717 78.266 64.0521C77.5888 64.3325 76.8629 64.4768 76.1299 64.4767H76.1309Z" fill="black"/>
<path opacity="0.53" d="M90.58 39.7148H58.223C57.2562 39.7198 56.2999 39.9152 55.4086 40.2897C54.5173 40.6643 53.7085 41.2108 53.0284 41.8979C52.3483 42.5851 51.8102 43.3995 51.4449 44.2946C51.0795 45.1897 50.894 46.1481 50.899 47.1149V71.0618C50.894 72.0286 51.0795 72.987 51.4449 73.8821C51.8102 74.7772 52.3483 75.5916 53.0284 76.2787C53.7085 76.9659 54.5173 77.5123 55.4086 77.8869C56.2999 78.2615 57.2562 78.4569 58.223 78.4619H90.58C91.5468 78.4569 92.5032 78.2615 93.3945 77.8869C94.2858 77.5123 95.0946 76.9659 95.7747 76.2787C96.4548 75.5916 96.9929 74.7772 97.3582 73.8821C97.7236 72.987 97.9091 72.0286 97.9041 71.0618V47.1149C97.9139 45.1624 97.1478 43.286 95.7744 41.8983C94.4009 40.5105 92.5325 39.7252 90.58 39.7148ZM74.402 63.1608C73.2651 63.1725 72.1504 62.8461 71.1993 62.223C70.2483 61.5998 69.504 60.7081 69.0608 59.6611C68.6176 58.614 68.4955 57.4589 68.7102 56.3424C68.9248 55.2259 69.4664 54.1983 70.2662 53.3902C71.066 52.5821 72.0878 52.0299 73.2021 51.8038C74.3164 51.5776 75.4727 51.6877 76.5242 52.1201C77.5758 52.5524 78.4752 53.2875 79.1081 54.2321C79.741 55.1766 80.079 56.2879 80.079 57.4249C80.0868 58.9383 79.493 60.3928 78.4284 61.4684C77.3637 62.5441 75.9155 63.1529 74.402 63.1608Z" fill="#251051"/>
<path d="M89.3601 39.7148H57.5511C55.6415 39.7148 53.8102 40.4734 52.4599 41.8237C51.1096 43.1739 50.3511 45.0053 50.3511 46.9149V70.2148C50.3511 71.1604 50.5373 72.0966 50.8991 72.9702C51.261 73.8437 51.7913 74.6374 52.4599 75.306C53.1285 75.9746 53.9222 76.5049 54.7958 76.8668C55.6693 77.2286 56.6056 77.4149 57.5511 77.4149H89.3601C90.3056 77.4149 91.2418 77.2286 92.1154 76.8668C92.9889 76.5049 93.7827 75.9746 94.4513 75.306C95.1198 74.6374 95.6502 73.8437 96.012 72.9702C96.3738 72.0966 96.5601 71.1604 96.5601 70.2148V46.9149C96.5601 45.0053 95.8015 43.1739 94.4513 41.8237C93.101 40.4734 91.2696 39.7148 89.3601 39.7148ZM73.4601 62.5289C72.3563 62.5289 71.2773 62.2015 70.3595 61.5883C69.4417 60.975 68.7263 60.1034 68.3039 59.0836C67.8815 58.0638 67.771 56.9417 67.9863 55.8591C68.2016 54.7765 68.7332 53.782 69.5137 53.0015C70.2942 52.2209 71.2887 51.6894 72.3713 51.4741C73.4539 51.2587 74.5761 51.3693 75.5959 51.7917C76.6157 52.2141 77.4872 52.9294 78.1005 53.8472C78.7137 54.765 79.0411 55.844 79.0411 56.9478C79.0411 57.6811 78.8965 58.4073 78.6158 59.0848C78.335 59.7622 77.9235 60.3777 77.4047 60.896C76.8859 61.4143 76.2701 61.8253 75.5924 62.1055C74.9147 62.3856 74.1884 62.5295 73.4551 62.5289H73.4601Z" fill="#A374E1"/>
<path d="M73.455 62.5292C76.5373 62.5292 79.036 60.0305 79.036 56.9482C79.036 53.8659 76.5373 51.3672 73.455 51.3672C70.3727 51.3672 67.874 53.8659 67.874 56.9482C67.874 60.0305 70.3727 62.5292 73.455 62.5292Z" fill="#FCFBFF"/>
<path opacity="0.66" fill-rule="evenodd" clip-rule="evenodd" d="M89.359 39.7148H73.459V51.3658C74.9393 51.3658 76.359 51.9539 77.4057 53.0006C78.4524 54.0473 79.0405 55.467 79.0405 56.9473C79.0405 58.4276 78.4524 59.8473 77.4057 60.894C76.359 61.9408 74.9393 62.5289 73.459 62.5289V77.4158H89.359C91.2686 77.4158 93.0999 76.6573 94.4501 75.307C95.8004 73.9567 96.559 72.1254 96.559 70.2158V46.9158C96.5591 45.9702 96.373 45.0339 96.0112 44.1602C95.6495 43.2866 95.1191 42.4927 94.4505 41.824C93.7819 41.1553 92.9882 40.6249 92.1146 40.263C91.241 39.9011 90.3046 39.7148 89.359 39.7148Z" fill="#B795ED"/>
<path opacity="0.23" d="M76.2136 107.172V104.319L73.3416 102.319L76.2136 100.571V97.0011L73.3416 95.0011L76.2136 93.2532V90.1852L74.4636 88.9672L76.2136 87.9021V86.1161L74.0016 83.7852L69.8586 86.4612V107.687C67.6083 108.632 65.7687 110.349 64.6704 112.529C63.5721 114.709 63.2871 117.209 63.8664 119.58C64.4458 121.951 65.8516 124.037 67.8314 125.465C69.8112 126.893 72.2351 127.568 74.6678 127.369C77.1005 127.169 79.3825 126.109 81.1039 124.379C82.8252 122.649 83.8731 120.361 84.0594 117.927C84.2456 115.494 83.5579 113.073 82.1198 111.101C80.6818 109.129 78.5877 107.734 76.2136 107.167V107.172ZM73.8366 124.641C73.2549 124.641 72.6863 124.469 72.2027 124.146C71.719 123.822 71.3421 123.363 71.1195 122.826C70.8969 122.288 70.8386 121.697 70.9521 121.126C71.0656 120.556 71.3457 120.032 71.757 119.62C72.1683 119.209 72.6924 118.929 73.2629 118.816C73.8333 118.702 74.4247 118.76 74.9621 118.983C75.4995 119.206 75.9588 119.583 76.282 120.066C76.6051 120.55 76.7776 121.119 76.7776 121.7C76.7776 122.48 76.4678 123.228 75.9162 123.78C75.3647 124.331 74.6166 124.641 73.8366 124.641Z" fill="#332307"/>
<path d="M75.6836 108.452V103.776L72.8116 101.776L75.6836 100.028V96.4581L72.8116 94.4581L75.6836 92.7102V89.6421L73.9336 88.4242L75.6836 87.3591V85.5731L73.4716 83.2422L69.3286 85.9181V108.448L75.6836 108.452Z" fill="#FDECC2"/>
<g opacity="0.7">
<path opacity="0.7" d="M71.0508 106.907C71.155 106.905 71.2544 106.863 71.328 106.789C71.4016 106.716 71.4435 106.616 71.4448 106.512V84.5547L70.6558 85.0637V106.512C70.6556 106.564 70.6658 106.615 70.6856 106.663C70.7054 106.711 70.7345 106.755 70.7712 106.791C70.8079 106.828 70.8515 106.857 70.8995 106.877C70.9475 106.897 70.9989 106.907 71.0508 106.907Z" fill="#F9BF35"/>
</g>
<path d="M75.6849 92.7141V89.6461L73.9349 88.4292L75.6849 87.3632V85.5771L73.4728 83.2461L71.9849 84.2081V106.553C73.2016 106.239 74.4812 106.264 75.6849 106.625V103.776L72.8129 101.776L75.6849 100.028V96.4581L72.8129 94.4581L75.6849 92.7141Z" fill="#F9BF35"/>
<path d="M73.3058 126.854C75.3336 126.854 77.3159 126.252 79.002 125.126C80.6881 123.999 82.0023 122.398 82.7783 120.524C83.5543 118.651 83.7574 116.589 83.3618 114.6C82.9661 112.611 81.9896 110.785 80.5557 109.351C79.1218 107.917 77.2949 106.94 75.306 106.545C73.3171 106.149 71.2556 106.352 69.3821 107.128C67.5086 107.904 65.9073 109.218 64.7807 110.904C63.6541 112.59 63.0527 114.573 63.0527 116.601C63.0527 119.32 64.133 121.928 66.0558 123.851C67.9786 125.773 70.5865 126.854 73.3058 126.854ZM73.3058 118.211C73.8875 118.211 74.4561 118.383 74.9397 118.706C75.4233 119.029 75.8003 119.489 76.0229 120.026C76.2455 120.564 76.3037 121.155 76.1902 121.725C76.0768 122.296 75.7967 122.82 75.3854 123.231C74.9741 123.643 74.45 123.923 73.8795 124.036C73.309 124.15 72.7177 124.091 72.1803 123.869C71.6429 123.646 71.1836 123.269 70.8604 122.786C70.5373 122.302 70.3647 121.733 70.3647 121.152C70.3653 120.372 70.6754 119.624 71.2269 119.073C71.7784 118.522 72.5261 118.213 73.3058 118.213V118.211Z" fill="#F9BF35"/>
<path opacity="0.29" d="M73.3056 107.277C71.4607 107.277 69.6572 107.824 68.1232 108.849C66.5892 109.874 65.3936 111.331 64.6876 113.036C63.9816 114.74 63.7969 116.616 64.1568 118.425C64.5167 120.235 65.4051 121.897 66.7097 123.201C68.0142 124.506 69.6763 125.394 71.4858 125.754C73.2952 126.114 75.1708 125.929 76.8752 125.223C78.5797 124.517 80.0365 123.322 81.0615 121.788C82.0865 120.254 82.6336 118.45 82.6336 116.605C82.6336 114.131 81.6508 111.759 79.9015 110.009C78.1521 108.26 75.7795 107.277 73.3056 107.277ZM73.2906 124.916C71.6535 124.916 70.0533 124.431 68.6921 123.521C67.331 122.612 66.2701 121.319 65.6436 119.807C65.0171 118.294 64.8532 116.63 65.1726 115.025C65.492 113.419 66.2803 111.944 67.4378 110.787C68.5954 109.629 70.0702 108.841 71.6758 108.521C73.2814 108.202 74.9456 108.366 76.458 108.992C77.9705 109.619 79.2632 110.68 80.1726 112.041C81.0821 113.402 81.5675 115.002 81.5675 116.639C81.5675 118.834 80.6955 120.94 79.1433 122.492C77.591 124.044 75.4858 124.916 73.2906 124.916Z" fill="#FDECC2"/>
<path opacity="0.2" fill-rule="evenodd" clip-rule="evenodd" d="M77.184 109.332L65.058 115.777C64.985 116.919 65.1037 118.066 65.409 119.169L79.53 111.2C78.8556 110.453 78.0631 109.822 77.184 109.332Z" fill="white"/>
<path opacity="0.2" fill-rule="evenodd" clip-rule="evenodd" d="M65.5977 119.693L79.9347 111.699L80.4427 112.468L65.9197 120.402L65.5977 119.693Z" fill="white"/>
</svg>
