<svg width="10" height="10" viewBox="0 0 10 10" fill="none" xmlns="http://www.w3.org/2000/svg">
<path fill-rule="evenodd" clip-rule="evenodd" d="M0.356405 0.355428C0.564685 0.147149 0.902373 0.147149 1.11065 0.355428L9.64398 8.88876C9.85226 9.09704 9.85226 9.43473 9.64398 9.64301C9.43571 9.85129 9.09802 9.85129 8.88974 9.64301L0.356405 1.10968C0.148125 0.901396 0.148125 0.563708 0.356405 0.355428Z" fill="#C3C9D5"/>
<path fill-rule="evenodd" clip-rule="evenodd" d="M9.64398 0.355428C9.85226 0.563708 9.85226 0.901396 9.64398 1.10968L1.11065 9.64301C0.902373 9.85129 0.564685 9.85129 0.356405 9.64301C0.148125 9.43473 0.148125 9.09704 0.356405 8.88876L8.88974 0.355428C9.09802 0.147149 9.43571 0.147149 9.64398 0.355428Z" fill="#C3C9D5"/>
</svg>
