<svg width="20" height="20" viewBox="0 0 20 20" fill="none" xmlns="http://www.w3.org/2000/svg">
<path d="M10.0003 1.66797C8.35213 1.66797 6.74095 2.15669 5.37054 3.07237C4.00014 3.98804 2.93206 5.28949 2.30133 6.8122C1.6706 8.33492 1.50558 10.0105 1.82712 11.627C2.14866 13.2435 2.94232 14.7284 4.10775 15.8938C5.27319 17.0592 6.75806 17.8529 8.37457 18.1745C9.99107 18.496 11.6666 18.331 13.1893 17.7003C14.7121 17.0695 16.0135 16.0014 16.9292 14.631C17.8449 13.2606 18.3336 11.6495 18.3336 10.0013C18.3336 7.79115 17.4557 5.67149 15.8929 4.10869C14.3301 2.54589 12.2104 1.66797 10.0003 1.66797ZM14.3899 13.6471L13.5183 14.5193L10.0003 11.0006L6.48155 14.5193L5.61002 13.6471L9.1281 10.129L5.61002 6.61096L6.48155 5.73943L10.0003 9.25751L13.5183 5.73943L14.3899 6.61096L10.8718 10.129L14.3899 13.6471Z" fill="#C3C9D5"/>
</svg>
