<svg width="41" height="13" viewBox="0 0 41 13" fill="none" xmlns="http://www.w3.org/2000/svg">
<path d="M3.832 0.879999C5.016 0.879999 6.05067 1.10933 6.936 1.568C7.832 2.016 8.52 2.66667 9 3.52C9.49067 4.36267 9.736 5.34933 9.736 6.48C9.736 7.61067 9.49067 8.592 9 9.424C8.52 10.256 7.832 10.896 6.936 11.344C6.05067 11.7813 5.016 12 3.832 12H0.2V0.879999H3.832ZM3.832 10.512C5.13333 10.512 6.13067 10.16 6.824 9.456C7.51733 8.752 7.864 7.76 7.864 6.48C7.864 5.18933 7.51733 4.18133 6.824 3.456C6.13067 2.73067 5.13333 2.368 3.832 2.368H2.024V10.512H3.832ZM19.6238 7.376C19.6238 7.70667 19.6024 8.00533 19.5598 8.272H12.8238C12.8771 8.976 13.1384 9.54133 13.6078 9.968C14.0771 10.3947 14.6531 10.608 15.3358 10.608C16.3171 10.608 17.0104 10.1973 17.4158 9.376H19.3837C19.1171 10.1867 18.6318 10.8533 17.9278 11.376C17.2344 11.888 16.3704 12.144 15.3358 12.144C14.4931 12.144 13.7358 11.9573 13.0638 11.584C12.4024 11.2 11.8798 10.6667 11.4958 9.984C11.1224 9.29067 10.9358 8.49067 10.9358 7.584C10.9358 6.67733 11.1171 5.88267 11.4798 5.2C11.8531 4.50667 12.3704 3.97333 13.0318 3.6C13.7038 3.22667 14.4718 3.04 15.3358 3.04C16.1678 3.04 16.9091 3.22133 17.5598 3.584C18.2104 3.94667 18.7171 4.45867 19.0798 5.12C19.4424 5.77067 19.6238 6.52267 19.6238 7.376ZM17.7198 6.8C17.7091 6.128 17.4691 5.58933 16.9998 5.184C16.5304 4.77867 15.9491 4.576 15.2558 4.576C14.6264 4.576 14.0878 4.77867 13.6398 5.184C13.1918 5.57867 12.9251 6.11733 12.8398 6.8H17.7198ZM20.8108 7.552C20.8108 6.66667 20.9921 5.88267 21.3548 5.2C21.7281 4.51733 22.2294 3.98933 22.8588 3.616C23.4988 3.232 24.2028 3.04 24.9708 3.04C25.6641 3.04 26.2668 3.17867 26.7788 3.456C27.3014 3.72267 27.7174 4.05867 28.0268 4.464V3.184H29.8668V12H28.0268V10.688C27.7174 11.104 27.2961 11.4507 26.7628 11.728C26.2294 12.0053 25.6214 12.144 24.9388 12.144C24.1814 12.144 23.4881 11.952 22.8588 11.568C22.2294 11.1733 21.7281 10.6293 21.3548 9.936C20.9921 9.232 20.8108 8.43733 20.8108 7.552ZM28.0268 7.584C28.0268 6.976 27.8988 6.448 27.6428 6C27.3974 5.552 27.0721 5.21067 26.6668 4.976C26.2614 4.74133 25.8241 4.624 25.3548 4.624C24.8854 4.624 24.4481 4.74133 24.0428 4.976C23.6374 5.2 23.3068 5.536 23.0508 5.984C22.8054 6.42133 22.6828 6.944 22.6828 7.552C22.6828 8.16 22.8054 8.69333 23.0508 9.152C23.3068 9.61067 23.6374 9.96267 24.0428 10.208C24.4588 10.4427 24.8961 10.56 25.3548 10.56C25.8241 10.56 26.2614 10.4427 26.6668 10.208C27.0721 9.97333 27.3974 9.632 27.6428 9.184C27.8988 8.72533 28.0268 8.192 28.0268 7.584ZM36.7105 3.04C37.4038 3.04 38.0225 3.184 38.5665 3.472C39.1212 3.76 39.5532 4.18667 39.8625 4.752C40.1718 5.31733 40.3265 6 40.3265 6.8V12H38.5185V7.072C38.5185 6.28267 38.3212 5.68 37.9265 5.264C37.5318 4.83733 36.9932 4.624 36.3105 4.624C35.6278 4.624 35.0838 4.83733 34.6785 5.264C34.2838 5.68 34.0865 6.28267 34.0865 7.072V12H32.2625V3.184H34.0865V4.192C34.3852 3.82933 34.7638 3.54667 35.2225 3.344C35.6918 3.14133 36.1878 3.04 36.7105 3.04Z" fill="#4A4A4A"/>
</svg>
