<svg width="500" height="132" viewBox="0 0 500 132" fill="none" xmlns="http://www.w3.org/2000/svg">
<rect x="1" y="1" width="498" height="130" rx="7" stroke="#DDE1E9" stroke-width="2" stroke-dasharray="4 4"/>
<path d="M144.158 82.214C145.24 82.214 146.169 82.41 146.944 82.802C147.718 83.194 148.311 83.7587 148.722 84.496C149.132 85.2333 149.338 86.1107 149.338 87.128C149.338 88.136 149.132 89.0087 148.722 89.746C148.311 90.474 147.718 91.034 146.944 91.426C146.169 91.8087 145.24 92 144.158 92H141.26V82.214H144.158ZM144.158 91.188C145.52 91.188 146.556 90.8333 147.266 90.124C147.984 89.4053 148.344 88.4067 148.344 87.128C148.344 85.84 147.984 84.8367 147.266 84.118C146.556 83.39 145.52 83.026 144.158 83.026H142.24V91.188H144.158ZM152.124 85.714C152.339 85.238 152.666 84.8693 153.104 84.608C153.552 84.3467 154.098 84.216 154.742 84.216V85.238H154.476C153.767 85.238 153.198 85.4293 152.768 85.812C152.339 86.1947 152.124 86.834 152.124 87.73V92H151.144V84.356H152.124V85.714ZM159.563 92.112C158.844 92.112 158.195 91.9533 157.617 91.636C157.047 91.3093 156.595 90.852 156.259 90.264C155.932 89.6667 155.769 88.9713 155.769 88.178C155.769 87.3847 155.937 86.694 156.273 86.106C156.609 85.5087 157.066 85.0513 157.645 84.734C158.223 84.4073 158.872 84.244 159.591 84.244C160.309 84.244 160.958 84.4073 161.537 84.734C162.125 85.0513 162.582 85.5087 162.909 86.106C163.245 86.694 163.413 87.3847 163.413 88.178C163.413 88.962 163.245 89.6527 162.909 90.25C162.573 90.8473 162.111 91.3093 161.523 91.636C160.935 91.9533 160.281 92.112 159.563 92.112ZM159.563 91.258C160.067 91.258 160.533 91.146 160.963 90.922C161.392 90.6887 161.737 90.3433 161.999 89.886C162.269 89.4193 162.405 88.85 162.405 88.178C162.405 87.506 162.274 86.9413 162.013 86.484C161.751 86.0173 161.406 85.672 160.977 85.448C160.547 85.2147 160.081 85.098 159.577 85.098C159.073 85.098 158.606 85.2147 158.177 85.448C157.747 85.672 157.402 86.0173 157.141 86.484C156.889 86.9413 156.763 87.506 156.763 88.178C156.763 88.85 156.889 89.4193 157.141 89.886C157.402 90.3433 157.743 90.6887 158.163 90.922C158.592 91.146 159.059 91.258 159.563 91.258ZM166.165 86.036C166.408 85.5227 166.79 85.098 167.313 84.762C167.845 84.4167 168.475 84.244 169.203 84.244C169.894 84.244 170.514 84.4073 171.065 84.734C171.625 85.0513 172.059 85.5087 172.367 86.106C172.684 86.694 172.843 87.38 172.843 88.164C172.843 88.948 172.684 89.6387 172.367 90.236C172.059 90.8333 171.625 91.2953 171.065 91.622C170.514 91.9487 169.894 92.112 169.203 92.112C168.484 92.112 167.859 91.944 167.327 91.608C166.795 91.2627 166.408 90.8333 166.165 90.32V95.612H165.199V84.356H166.165V86.036ZM171.849 88.164C171.849 87.5293 171.723 86.9833 171.471 86.526C171.228 86.0593 170.892 85.7047 170.463 85.462C170.034 85.2193 169.548 85.098 169.007 85.098C168.484 85.098 168.004 85.224 167.565 85.476C167.136 85.728 166.795 86.0873 166.543 86.554C166.291 87.0207 166.165 87.562 166.165 88.178C166.165 88.794 166.291 89.3353 166.543 89.802C166.795 90.2687 167.136 90.628 167.565 90.88C168.004 91.132 168.484 91.258 169.007 91.258C169.548 91.258 170.034 91.1367 170.463 90.894C170.892 90.642 171.228 90.2827 171.471 89.816C171.723 89.34 171.849 88.7893 171.849 88.164ZM184.788 84.356L180.252 95.598H179.23L180.714 91.958L177.578 84.356H178.656L181.26 90.88L183.78 84.356H184.788ZM189.463 92.112C188.744 92.112 188.096 91.9533 187.517 91.636C186.948 91.3093 186.495 90.852 186.159 90.264C185.832 89.6667 185.669 88.9713 185.669 88.178C185.669 87.3847 185.837 86.694 186.173 86.106C186.509 85.5087 186.966 85.0513 187.545 84.734C188.124 84.4073 188.772 84.244 189.491 84.244C190.21 84.244 190.858 84.4073 191.437 84.734C192.025 85.0513 192.482 85.5087 192.809 86.106C193.145 86.694 193.313 87.3847 193.313 88.178C193.313 88.962 193.145 89.6527 192.809 90.25C192.473 90.8473 192.011 91.3093 191.423 91.636C190.835 91.9533 190.182 92.112 189.463 92.112ZM189.463 91.258C189.967 91.258 190.434 91.146 190.863 90.922C191.292 90.6887 191.638 90.3433 191.899 89.886C192.17 89.4193 192.305 88.85 192.305 88.178C192.305 87.506 192.174 86.9413 191.913 86.484C191.652 86.0173 191.306 85.672 190.877 85.448C190.448 85.2147 189.981 85.098 189.477 85.098C188.973 85.098 188.506 85.2147 188.077 85.448C187.648 85.672 187.302 86.0173 187.041 86.484C186.789 86.9413 186.663 87.506 186.663 88.178C186.663 88.85 186.789 89.4193 187.041 89.886C187.302 90.3433 187.643 90.6887 188.063 90.922C188.492 91.146 188.959 91.258 189.463 91.258ZM201.721 84.356V92H200.741V90.656C200.517 91.132 200.172 91.496 199.705 91.748C199.239 92 198.716 92.126 198.137 92.126C197.223 92.126 196.476 91.846 195.897 91.286C195.319 90.7167 195.029 89.8953 195.029 88.822V84.356H195.995V88.71C195.995 89.5407 196.201 90.1753 196.611 90.614C197.031 91.0527 197.601 91.272 198.319 91.272C199.057 91.272 199.645 91.0387 200.083 90.572C200.522 90.1053 200.741 89.4193 200.741 88.514V84.356H201.721ZM204.939 85.714C205.154 85.238 205.48 84.8693 205.919 84.608C206.367 84.3467 206.913 84.216 207.557 84.216V85.238H207.291C206.582 85.238 206.012 85.4293 205.583 85.812C205.154 86.1947 204.939 86.834 204.939 87.73V92H203.959V84.356H204.939V85.714ZM215.589 91.048L218.165 84.356H219.201L216.135 92H215.029L211.963 84.356H213.013L215.589 91.048ZM221.019 82.914C220.823 82.914 220.655 82.844 220.515 82.704C220.375 82.564 220.305 82.3913 220.305 82.186C220.305 81.9807 220.375 81.8127 220.515 81.682C220.655 81.542 220.823 81.472 221.019 81.472C221.215 81.472 221.383 81.542 221.523 81.682C221.663 81.8127 221.733 81.9807 221.733 82.186C221.733 82.3913 221.663 82.564 221.523 82.704C221.383 82.844 221.215 82.914 221.019 82.914ZM221.509 84.356V92H220.529V84.356H221.509ZM223.28 88.164C223.28 87.38 223.439 86.694 223.756 86.106C224.074 85.5087 224.508 85.0513 225.058 84.734C225.618 84.4073 226.248 84.244 226.948 84.244C227.62 84.244 228.227 84.4073 228.768 84.734C229.31 85.0607 229.706 85.4853 229.958 86.008V81.64H230.938V92H229.958V90.292C229.725 90.824 229.342 91.2627 228.81 91.608C228.278 91.944 227.653 92.112 226.934 92.112C226.234 92.112 225.604 91.9487 225.044 91.622C224.494 91.2953 224.06 90.8333 223.742 90.236C223.434 89.6387 223.28 88.948 223.28 88.164ZM229.958 88.178C229.958 87.562 229.832 87.0207 229.58 86.554C229.328 86.0873 228.983 85.728 228.544 85.476C228.115 85.224 227.639 85.098 227.116 85.098C226.575 85.098 226.09 85.2193 225.66 85.462C225.231 85.7047 224.89 86.0593 224.638 86.526C224.396 86.9833 224.274 87.5293 224.274 88.164C224.274 88.7893 224.396 89.34 224.638 89.816C224.89 90.2827 225.231 90.642 225.66 90.894C226.09 91.1367 226.575 91.258 227.116 91.258C227.639 91.258 228.115 91.132 228.544 90.88C228.983 90.628 229.328 90.2687 229.58 89.802C229.832 89.3353 229.958 88.794 229.958 88.178ZM240.092 87.786C240.092 88.122 240.082 88.3787 240.064 88.556H233.722C233.75 89.1347 233.89 89.6293 234.142 90.04C234.394 90.4507 234.725 90.7633 235.136 90.978C235.546 91.1833 235.994 91.286 236.48 91.286C237.114 91.286 237.646 91.132 238.076 90.824C238.514 90.516 238.804 90.1007 238.944 89.578H239.98C239.793 90.3247 239.392 90.936 238.776 91.412C238.169 91.8787 237.404 92.112 236.48 92.112C235.761 92.112 235.117 91.9533 234.548 91.636C233.978 91.3093 233.53 90.852 233.204 90.264C232.886 89.6667 232.728 88.9713 232.728 88.178C232.728 87.3847 232.886 86.6893 233.204 86.092C233.521 85.4947 233.964 85.0373 234.534 84.72C235.103 84.4027 235.752 84.244 236.48 84.244C237.208 84.244 237.842 84.4027 238.384 84.72C238.934 85.0373 239.354 85.4667 239.644 86.008C239.942 86.54 240.092 87.1327 240.092 87.786ZM239.098 87.758C239.107 87.1887 238.99 86.7033 238.748 86.302C238.514 85.9007 238.192 85.5973 237.782 85.392C237.371 85.1867 236.923 85.084 236.438 85.084C235.71 85.084 235.089 85.3173 234.576 85.784C234.062 86.2507 233.778 86.9087 233.722 87.758H239.098ZM245.231 92.112C244.512 92.112 243.863 91.9533 243.285 91.636C242.715 91.3093 242.263 90.852 241.927 90.264C241.6 89.6667 241.437 88.9713 241.437 88.178C241.437 87.3847 241.605 86.694 241.941 86.106C242.277 85.5087 242.734 85.0513 243.313 84.734C243.891 84.4073 244.54 84.244 245.259 84.244C245.977 84.244 246.626 84.4073 247.205 84.734C247.793 85.0513 248.25 85.5087 248.577 86.106C248.913 86.694 249.081 87.3847 249.081 88.178C249.081 88.962 248.913 89.6527 248.577 90.25C248.241 90.8473 247.779 91.3093 247.191 91.636C246.603 91.9533 245.949 92.112 245.231 92.112ZM245.231 91.258C245.735 91.258 246.201 91.146 246.631 90.922C247.06 90.6887 247.405 90.3433 247.667 89.886C247.937 89.4193 248.073 88.85 248.073 88.178C248.073 87.506 247.942 86.9413 247.681 86.484C247.419 86.0173 247.074 85.672 246.645 85.448C246.215 85.2147 245.749 85.098 245.245 85.098C244.741 85.098 244.274 85.2147 243.845 85.448C243.415 85.672 243.07 86.0173 242.809 86.484C242.557 86.9413 242.431 87.506 242.431 88.178C242.431 88.85 242.557 89.4193 242.809 89.886C243.07 90.3433 243.411 90.6887 243.831 90.922C244.26 91.146 244.727 91.258 245.231 91.258ZM258.349 84.216C258.928 84.216 259.446 84.3373 259.903 84.58C260.37 84.8227 260.734 85.196 260.995 85.7C261.266 86.1947 261.401 86.8013 261.401 87.52V92H260.435V87.632C260.435 86.8013 260.225 86.1667 259.805 85.728C259.394 85.2893 258.83 85.07 258.111 85.07C257.374 85.07 256.786 85.3033 256.347 85.77C255.908 86.2367 255.689 86.9227 255.689 87.828V92H254.709V81.64H255.689V85.658C255.932 85.2007 256.286 84.846 256.753 84.594C257.229 84.342 257.761 84.216 258.349 84.216ZM270.484 87.786C270.484 88.122 270.475 88.3787 270.456 88.556H264.114C264.142 89.1347 264.282 89.6293 264.534 90.04C264.786 90.4507 265.118 90.7633 265.528 90.978C265.939 91.1833 266.387 91.286 266.872 91.286C267.507 91.286 268.039 91.132 268.468 90.824C268.907 90.516 269.196 90.1007 269.336 89.578H270.372C270.186 90.3247 269.784 90.936 269.168 91.412C268.562 91.8787 267.796 92.112 266.872 92.112C266.154 92.112 265.51 91.9533 264.94 91.636C264.371 91.3093 263.923 90.852 263.596 90.264C263.279 89.6667 263.12 88.9713 263.12 88.178C263.12 87.3847 263.279 86.6893 263.596 86.092C263.914 85.4947 264.357 85.0373 264.926 84.72C265.496 84.4027 266.144 84.244 266.872 84.244C267.6 84.244 268.235 84.4027 268.776 84.72C269.327 85.0373 269.747 85.4667 270.036 86.008C270.335 86.54 270.484 87.1327 270.484 87.786ZM269.49 87.758C269.5 87.1887 269.383 86.7033 269.14 86.302C268.907 85.9007 268.585 85.5973 268.174 85.392C267.764 85.1867 267.316 85.084 266.83 85.084C266.102 85.084 265.482 85.3173 264.968 85.784C264.455 86.2507 264.17 86.9087 264.114 87.758H269.49ZM273.257 85.714C273.472 85.238 273.799 84.8693 274.237 84.608C274.685 84.3467 275.231 84.216 275.875 84.216V85.238H275.609C274.9 85.238 274.331 85.4293 273.901 85.812C273.472 86.1947 273.257 86.834 273.257 87.73V92H272.277V84.356H273.257V85.714ZM284.265 87.786C284.265 88.122 284.256 88.3787 284.237 88.556H277.895C277.923 89.1347 278.063 89.6293 278.315 90.04C278.567 90.4507 278.899 90.7633 279.309 90.978C279.72 91.1833 280.168 91.286 280.653 91.286C281.288 91.286 281.82 91.132 282.249 90.824C282.688 90.516 282.977 90.1007 283.117 89.578H284.153C283.967 90.3247 283.565 90.936 282.949 91.412C282.343 91.8787 281.577 92.112 280.653 92.112C279.935 92.112 279.291 91.9533 278.721 91.636C278.152 91.3093 277.704 90.852 277.377 90.264C277.06 89.6667 276.901 88.9713 276.901 88.178C276.901 87.3847 277.06 86.6893 277.377 86.092C277.695 85.4947 278.138 85.0373 278.707 84.72C279.277 84.4027 279.925 84.244 280.653 84.244C281.381 84.244 282.016 84.4027 282.557 84.72C283.108 85.0373 283.528 85.4667 283.817 86.008C284.116 86.54 284.265 87.1327 284.265 87.786ZM283.271 87.758C283.281 87.1887 283.164 86.7033 282.921 86.302C282.688 85.9007 282.366 85.5973 281.955 85.392C281.545 85.1867 281.097 85.084 280.611 85.084C279.883 85.084 279.263 85.3173 278.749 85.784C278.236 86.2507 277.951 86.9087 277.895 87.758H283.271ZM286.954 90.376L285.498 94.044H284.826L285.862 90.376H286.954ZM295.666 92.112C294.948 92.112 294.299 91.9533 293.72 91.636C293.151 91.3093 292.698 90.852 292.362 90.264C292.036 89.6667 291.872 88.9713 291.872 88.178C291.872 87.3847 292.04 86.694 292.376 86.106C292.712 85.5087 293.17 85.0513 293.748 84.734C294.327 84.4073 294.976 84.244 295.694 84.244C296.413 84.244 297.062 84.4073 297.64 84.734C298.228 85.0513 298.686 85.5087 299.012 86.106C299.348 86.694 299.516 87.3847 299.516 88.178C299.516 88.962 299.348 89.6527 299.012 90.25C298.676 90.8473 298.214 91.3093 297.626 91.636C297.038 91.9533 296.385 92.112 295.666 92.112ZM295.666 91.258C296.17 91.258 296.637 91.146 297.066 90.922C297.496 90.6887 297.841 90.3433 298.102 89.886C298.373 89.4193 298.508 88.85 298.508 88.178C298.508 87.506 298.378 86.9413 298.116 86.484C297.855 86.0173 297.51 85.672 297.08 85.448C296.651 85.2147 296.184 85.098 295.68 85.098C295.176 85.098 294.71 85.2147 294.28 85.448C293.851 85.672 293.506 86.0173 293.244 86.484C292.992 86.9413 292.866 87.506 292.866 88.178C292.866 88.85 292.992 89.4193 293.244 89.886C293.506 90.3433 293.846 90.6887 294.266 90.922C294.696 91.146 295.162 91.258 295.666 91.258ZM302.283 85.714C302.497 85.238 302.824 84.8693 303.263 84.608C303.711 84.3467 304.257 84.216 304.901 84.216V85.238H304.635C303.925 85.238 303.356 85.4293 302.927 85.812C302.497 86.1947 302.283 86.834 302.283 87.73V92H301.303V84.356H302.283V85.714Z" fill="#484848"/>
<path d="M311.183 86.05C311.435 85.518 311.822 85.084 312.345 84.748C312.877 84.412 313.502 84.244 314.221 84.244C314.921 84.244 315.546 84.4073 316.097 84.734C316.647 85.0513 317.077 85.5087 317.385 86.106C317.702 86.694 317.861 87.38 317.861 88.164C317.861 88.948 317.702 89.6387 317.385 90.236C317.077 90.8333 316.643 91.2953 316.083 91.622C315.532 91.9487 314.911 92.112 314.221 92.112C313.493 92.112 312.863 91.9487 312.331 91.622C311.808 91.286 311.425 90.852 311.183 90.32V92H310.217V81.64H311.183V86.05ZM316.867 88.164C316.867 87.5293 316.741 86.9833 316.489 86.526C316.246 86.0593 315.91 85.7047 315.481 85.462C315.051 85.2193 314.566 85.098 314.025 85.098C313.502 85.098 313.021 85.224 312.583 85.476C312.153 85.728 311.813 86.0873 311.561 86.554C311.309 87.0207 311.183 87.562 311.183 88.178C311.183 88.794 311.309 89.3353 311.561 89.802C311.813 90.2687 312.153 90.628 312.583 90.88C313.021 91.132 313.502 91.258 314.025 91.258C314.566 91.258 315.051 91.1367 315.481 90.894C315.91 90.642 316.246 90.2827 316.489 89.816C316.741 89.34 316.867 88.7893 316.867 88.164ZM320.644 85.714C320.859 85.238 321.185 84.8693 321.624 84.608C322.072 84.3467 322.618 84.216 323.262 84.216V85.238H322.996C322.287 85.238 321.717 85.4293 321.288 85.812C320.859 86.1947 320.644 86.834 320.644 87.73V92H319.664V84.356H320.644V85.714ZM328.082 92.112C327.364 92.112 326.715 91.9533 326.136 91.636C325.567 91.3093 325.114 90.852 324.778 90.264C324.452 89.6667 324.288 88.9713 324.288 88.178C324.288 87.3847 324.456 86.694 324.792 86.106C325.128 85.5087 325.586 85.0513 326.164 84.734C326.743 84.4073 327.392 84.244 328.11 84.244C328.829 84.244 329.478 84.4073 330.056 84.734C330.644 85.0513 331.102 85.5087 331.428 86.106C331.764 86.694 331.932 87.3847 331.932 88.178C331.932 88.962 331.764 89.6527 331.428 90.25C331.092 90.8473 330.63 91.3093 330.042 91.636C329.454 91.9533 328.801 92.112 328.082 92.112ZM328.082 91.258C328.586 91.258 329.053 91.146 329.482 90.922C329.912 90.6887 330.257 90.3433 330.518 89.886C330.789 89.4193 330.924 88.85 330.924 88.178C330.924 87.506 330.794 86.9413 330.532 86.484C330.271 86.0173 329.926 85.672 329.496 85.448C329.067 85.2147 328.6 85.098 328.096 85.098C327.592 85.098 327.126 85.2147 326.696 85.448C326.267 85.672 325.922 86.0173 325.66 86.484C325.408 86.9413 325.282 87.506 325.282 88.178C325.282 88.85 325.408 89.4193 325.66 89.886C325.922 90.3433 326.262 90.6887 326.682 90.922C327.112 91.146 327.578 91.258 328.082 91.258ZM343.799 84.356L341.405 92H340.425L338.311 85.588L336.197 92H335.203L332.809 84.356H333.803L335.707 91.006L337.849 84.356H338.829L340.943 91.02L342.833 84.356H343.799ZM347.767 92.112C346.889 92.112 346.171 91.9113 345.611 91.51C345.06 91.0993 344.752 90.544 344.687 89.844H345.695C345.741 90.2733 345.942 90.6233 346.297 90.894C346.661 91.1553 347.146 91.286 347.753 91.286C348.285 91.286 348.7 91.16 348.999 90.908C349.307 90.656 349.461 90.3433 349.461 89.97C349.461 89.7087 349.377 89.494 349.209 89.326C349.041 89.158 348.826 89.0273 348.565 88.934C348.313 88.8313 347.967 88.724 347.529 88.612C346.959 88.4627 346.497 88.3133 346.143 88.164C345.788 88.0147 345.485 87.7953 345.233 87.506C344.99 87.2073 344.869 86.8107 344.869 86.316C344.869 85.9427 344.981 85.5973 345.205 85.28C345.429 84.9627 345.746 84.7107 346.157 84.524C346.567 84.3373 347.034 84.244 347.557 84.244C348.378 84.244 349.041 84.454 349.545 84.874C350.049 85.2847 350.319 85.854 350.357 86.582H349.377C349.349 86.134 349.171 85.7747 348.845 85.504C348.527 85.224 348.089 85.084 347.529 85.084C347.034 85.084 346.633 85.2007 346.325 85.434C346.017 85.6673 345.863 85.9567 345.863 86.302C345.863 86.6007 345.951 86.848 346.129 87.044C346.315 87.2307 346.544 87.38 346.815 87.492C347.085 87.5947 347.449 87.7113 347.907 87.842C348.457 87.9913 348.896 88.136 349.223 88.276C349.549 88.416 349.829 88.6213 350.063 88.892C350.296 89.1627 350.417 89.522 350.427 89.97C350.427 90.3807 350.315 90.7493 350.091 91.076C349.867 91.3933 349.554 91.6453 349.153 91.832C348.751 92.0187 348.289 92.112 347.767 92.112ZM359.187 87.786C359.187 88.122 359.178 88.3787 359.159 88.556H352.817C352.845 89.1347 352.985 89.6293 353.237 90.04C353.489 90.4507 353.821 90.7633 354.231 90.978C354.642 91.1833 355.09 91.286 355.575 91.286C356.21 91.286 356.742 91.132 357.171 90.824C357.61 90.516 357.899 90.1007 358.039 89.578H359.075C358.889 90.3247 358.487 90.936 357.871 91.412C357.265 91.8787 356.499 92.112 355.575 92.112C354.857 92.112 354.213 91.9533 353.643 91.636C353.074 91.3093 352.626 90.852 352.299 90.264C351.982 89.6667 351.823 88.9713 351.823 88.178C351.823 87.3847 351.982 86.6893 352.299 86.092C352.617 85.4947 353.06 85.0373 353.629 84.72C354.199 84.4027 354.847 84.244 355.575 84.244C356.303 84.244 356.938 84.4027 357.479 84.72C358.03 85.0373 358.45 85.4667 358.739 86.008C359.038 86.54 359.187 87.1327 359.187 87.786ZM358.193 87.758C358.203 87.1887 358.086 86.7033 357.843 86.302C357.61 85.9007 357.288 85.5973 356.877 85.392C356.467 85.1867 356.019 85.084 355.533 85.084C354.805 85.084 354.185 85.3173 353.671 85.784C353.158 86.2507 352.873 86.9087 352.817 87.758H358.193Z" fill="url(#paint0_linear_616_14744)"/>
<path d="M154.699 117.084C154.147 117.084 153.659 116.988 153.235 116.796C152.819 116.604 152.491 116.336 152.251 115.992C152.011 115.648 151.883 115.264 151.867 114.84H152.755C152.795 115.248 152.975 115.608 153.295 115.92C153.615 116.224 154.083 116.376 154.699 116.376C155.267 116.376 155.715 116.232 156.043 115.944C156.379 115.648 156.547 115.276 156.547 114.828C156.547 114.468 156.455 114.18 156.271 113.964C156.087 113.74 155.859 113.576 155.587 113.472C155.315 113.36 154.939 113.24 154.459 113.112C153.899 112.96 153.455 112.812 153.127 112.668C152.799 112.524 152.519 112.3 152.287 111.996C152.055 111.692 151.939 111.28 151.939 110.76C151.939 110.328 152.051 109.944 152.275 109.608C152.499 109.264 152.815 108.996 153.223 108.804C153.631 108.612 154.099 108.516 154.627 108.516C155.403 108.516 156.027 108.708 156.499 109.092C156.979 109.468 157.255 109.956 157.327 110.556H156.415C156.359 110.212 156.171 109.908 155.851 109.644C155.531 109.372 155.099 109.236 154.555 109.236C154.051 109.236 153.631 109.372 153.295 109.644C152.959 109.908 152.791 110.272 152.791 110.736C152.791 111.088 152.883 111.372 153.067 111.588C153.251 111.804 153.479 111.968 153.751 112.08C154.031 112.192 154.407 112.312 154.879 112.44C155.423 112.592 155.863 112.744 156.199 112.896C156.535 113.04 156.819 113.264 157.051 113.568C157.283 113.872 157.399 114.28 157.399 114.792C157.399 115.184 157.295 115.556 157.087 115.908C156.879 116.26 156.571 116.544 156.163 116.76C155.755 116.976 155.267 117.084 154.699 117.084ZM164.699 110.448V117H163.859V115.848C163.667 116.256 163.371 116.568 162.971 116.784C162.571 117 162.123 117.108 161.627 117.108C160.843 117.108 160.203 116.868 159.707 116.388C159.211 115.9 158.963 115.196 158.963 114.276V110.448H159.791V114.18C159.791 114.892 159.967 115.436 160.319 115.812C160.679 116.188 161.167 116.376 161.783 116.376C162.415 116.376 162.919 116.176 163.295 115.776C163.671 115.376 163.859 114.788 163.859 114.012V110.448H164.699ZM167.444 111.888C167.652 111.448 167.98 111.084 168.428 110.796C168.884 110.5 169.424 110.352 170.048 110.352C170.64 110.352 171.172 110.492 171.644 110.772C172.124 111.044 172.496 111.436 172.76 111.948C173.032 112.452 173.168 113.04 173.168 113.712C173.168 114.384 173.032 114.976 172.76 115.488C172.496 116 172.124 116.396 171.644 116.676C171.172 116.956 170.64 117.096 170.048 117.096C169.432 117.096 168.896 116.952 168.44 116.664C167.984 116.368 167.652 116 167.444 115.56V120.096H166.616V110.448H167.444V111.888ZM172.316 113.712C172.316 113.168 172.208 112.7 171.992 112.308C171.784 111.908 171.496 111.604 171.128 111.396C170.76 111.188 170.344 111.084 169.88 111.084C169.432 111.084 169.02 111.192 168.644 111.408C168.276 111.624 167.984 111.932 167.768 112.332C167.552 112.732 167.444 113.196 167.444 113.724C167.444 114.252 167.552 114.716 167.768 115.116C167.984 115.516 168.276 115.824 168.644 116.04C169.02 116.256 169.432 116.364 169.88 116.364C170.344 116.364 170.76 116.26 171.128 116.052C171.496 115.836 171.784 115.528 171.992 115.128C172.208 114.72 172.316 114.248 172.316 113.712ZM175.542 111.888C175.75 111.448 176.078 111.084 176.526 110.796C176.982 110.5 177.522 110.352 178.146 110.352C178.738 110.352 179.27 110.492 179.742 110.772C180.222 111.044 180.594 111.436 180.858 111.948C181.13 112.452 181.266 113.04 181.266 113.712C181.266 114.384 181.13 114.976 180.858 115.488C180.594 116 180.222 116.396 179.742 116.676C179.27 116.956 178.738 117.096 178.146 117.096C177.53 117.096 176.994 116.952 176.538 116.664C176.082 116.368 175.75 116 175.542 115.56V120.096H174.714V110.448H175.542V111.888ZM180.414 113.712C180.414 113.168 180.306 112.7 180.09 112.308C179.882 111.908 179.594 111.604 179.226 111.396C178.858 111.188 178.442 111.084 177.978 111.084C177.53 111.084 177.118 111.192 176.742 111.408C176.374 111.624 176.082 111.932 175.866 112.332C175.65 112.732 175.542 113.196 175.542 113.724C175.542 114.252 175.65 114.716 175.866 115.116C176.082 115.516 176.374 115.824 176.742 116.04C177.118 116.256 177.53 116.364 177.978 116.364C178.442 116.364 178.858 116.26 179.226 116.052C179.594 115.836 179.882 115.528 180.09 115.128C180.306 114.72 180.414 114.248 180.414 113.712ZM185.68 117.096C185.064 117.096 184.508 116.96 184.012 116.688C183.524 116.408 183.136 116.016 182.848 115.512C182.568 115 182.428 114.404 182.428 113.724C182.428 113.044 182.572 112.452 182.86 111.948C183.148 111.436 183.54 111.044 184.036 110.772C184.532 110.492 185.088 110.352 185.704 110.352C186.32 110.352 186.876 110.492 187.372 110.772C187.876 111.044 188.268 111.436 188.548 111.948C188.836 112.452 188.98 113.044 188.98 113.724C188.98 114.396 188.836 114.988 188.548 115.5C188.26 116.012 187.864 116.408 187.36 116.688C186.856 116.96 186.296 117.096 185.68 117.096ZM185.68 116.364C186.112 116.364 186.512 116.268 186.88 116.076C187.248 115.876 187.544 115.58 187.768 115.188C188 114.788 188.116 114.3 188.116 113.724C188.116 113.148 188.004 112.664 187.78 112.272C187.556 111.872 187.26 111.576 186.892 111.384C186.524 111.184 186.124 111.084 185.692 111.084C185.26 111.084 184.86 111.184 184.492 111.384C184.124 111.576 183.828 111.872 183.604 112.272C183.388 112.664 183.28 113.148 183.28 113.724C183.28 114.3 183.388 114.788 183.604 115.188C183.828 115.58 184.12 115.876 184.48 116.076C184.848 116.268 185.248 116.364 185.68 116.364ZM191.351 111.612C191.535 111.204 191.815 110.888 192.191 110.664C192.575 110.44 193.043 110.328 193.595 110.328V111.204H193.367C192.759 111.204 192.271 111.368 191.903 111.696C191.535 112.024 191.351 112.572 191.351 113.34V117H190.511V110.448H191.351V111.612ZM195.95 111.156V115.224C195.95 115.624 196.026 115.9 196.178 116.052C196.33 116.204 196.598 116.28 196.982 116.28H197.75V117H196.85C196.258 117 195.818 116.864 195.53 116.592C195.242 116.312 195.098 115.856 195.098 115.224V111.156H194.186V110.448H195.098V108.804H195.95V110.448H197.75V111.156H195.95ZM201.392 117.096C200.64 117.096 200.024 116.924 199.544 116.58C199.072 116.228 198.808 115.752 198.752 115.152H199.616C199.656 115.52 199.828 115.82 200.132 116.052C200.444 116.276 200.86 116.388 201.38 116.388C201.836 116.388 202.192 116.28 202.448 116.064C202.712 115.848 202.844 115.58 202.844 115.26C202.844 115.036 202.772 114.852 202.628 114.708C202.484 114.564 202.3 114.452 202.076 114.372C201.86 114.284 201.564 114.192 201.188 114.096C200.7 113.968 200.304 113.84 200 113.712C199.696 113.584 199.436 113.396 199.22 113.148C199.012 112.892 198.908 112.552 198.908 112.128C198.908 111.808 199.004 111.512 199.196 111.24C199.388 110.968 199.66 110.752 200.012 110.592C200.364 110.432 200.764 110.352 201.212 110.352C201.916 110.352 202.484 110.532 202.916 110.892C203.348 111.244 203.58 111.732 203.612 112.356H202.772C202.748 111.972 202.596 111.664 202.316 111.432C202.044 111.192 201.668 111.072 201.188 111.072C200.764 111.072 200.42 111.172 200.156 111.372C199.892 111.572 199.76 111.82 199.76 112.116C199.76 112.372 199.836 112.584 199.988 112.752C200.148 112.912 200.344 113.04 200.576 113.136C200.808 113.224 201.12 113.324 201.512 113.436C201.984 113.564 202.36 113.688 202.64 113.808C202.92 113.928 203.16 114.104 203.36 114.336C203.56 114.568 203.664 114.876 203.672 115.26C203.672 115.612 203.576 115.928 203.384 116.208C203.192 116.48 202.924 116.696 202.58 116.856C202.236 117.016 201.84 117.096 201.392 117.096ZM205.397 117.06C205.221 117.06 205.073 117 204.953 116.88C204.841 116.76 204.785 116.612 204.785 116.436C204.785 116.26 204.841 116.116 204.953 116.004C205.073 115.884 205.221 115.824 205.397 115.824C205.565 115.824 205.705 115.884 205.817 116.004C205.937 116.116 205.997 116.26 205.997 116.436C205.997 116.612 205.937 116.76 205.817 116.88C205.705 117 205.565 117.06 205.397 117.06ZM205.397 111.84C205.221 111.84 205.073 111.78 204.953 111.66C204.841 111.54 204.785 111.392 204.785 111.216C204.785 111.04 204.841 110.896 204.953 110.784C205.073 110.664 205.221 110.604 205.397 110.604C205.565 110.604 205.705 110.664 205.817 110.784C205.937 110.896 205.997 111.04 205.997 111.216C205.997 111.392 205.937 111.54 205.817 111.66C205.705 111.78 205.565 111.84 205.397 111.84ZM218.957 108.72V117H218.117V110.388L215.165 117H214.553L211.601 110.412V117H210.761V108.72H211.649L214.853 115.896L218.057 108.72H218.957ZM226.226 111.024C226.226 111.744 225.99 112.324 225.518 112.764C225.046 113.204 224.338 113.424 223.394 113.424H221.702V117H220.862V108.612H223.394C224.33 108.612 225.034 108.832 225.506 109.272C225.986 109.712 226.226 110.296 226.226 111.024ZM223.394 112.704C224.706 112.704 225.362 112.144 225.362 111.024C225.362 110.464 225.206 110.04 224.894 109.752C224.582 109.464 224.082 109.32 223.394 109.32H221.702V112.704H223.394ZM227.084 114.96V114.324L231.452 108.444H232.448V114.228H233.732V114.96H232.448V117H231.62V114.96H227.084ZM231.656 109.368L228.056 114.228H231.656V109.368ZM235.763 115.608L234.515 118.752H233.939L234.827 115.608H235.763ZM248.558 108.72V117H247.718V110.388L244.766 117H244.154L241.202 110.412V117H240.362V108.72H241.25L244.454 115.896L247.658 108.72H248.558ZM254.232 117.084C253.456 117.084 252.752 116.904 252.12 116.544C251.488 116.176 250.988 115.668 250.62 115.02C250.26 114.364 250.08 113.624 250.08 112.8C250.08 111.976 250.26 111.24 250.62 110.592C250.988 109.936 251.488 109.428 252.12 109.068C252.752 108.7 253.456 108.516 254.232 108.516C255.016 108.516 255.724 108.7 256.356 109.068C256.988 109.428 257.484 109.936 257.844 110.592C258.204 111.24 258.384 111.976 258.384 112.8C258.384 113.624 258.204 114.364 257.844 115.02C257.484 115.668 256.988 116.176 256.356 116.544C255.724 116.904 255.016 117.084 254.232 117.084ZM254.232 116.352C254.856 116.352 255.416 116.208 255.912 115.92C256.408 115.632 256.8 115.22 257.088 114.684C257.376 114.14 257.52 113.512 257.52 112.8C257.52 112.088 257.376 111.464 257.088 110.928C256.8 110.392 256.408 109.98 255.912 109.692C255.416 109.404 254.856 109.26 254.232 109.26C253.608 109.26 253.048 109.404 252.552 109.692C252.056 109.98 251.664 110.392 251.376 110.928C251.088 111.464 250.944 112.088 250.944 112.8C250.944 113.512 251.088 114.14 251.376 114.684C251.664 115.22 252.056 115.632 252.552 115.92C253.048 116.208 253.608 116.352 254.232 116.352ZM266.569 108.612L263.389 117H262.429L259.249 108.612H260.161L262.909 116.088L265.681 108.612H266.569ZM268.599 115.608L267.351 118.752H266.775L267.663 115.608H268.599ZM283.374 108.612L280.998 117H280.062L277.95 109.848L275.79 117L274.878 117.012L272.55 108.612H273.45L275.37 115.968L277.518 108.612H278.454L280.542 115.968L282.474 108.612H283.374ZM292.855 108.72V117H292.015V110.388L289.063 117H288.451L285.499 110.412V117H284.659V108.72H285.547L288.751 115.896L291.955 108.72H292.855ZM301.409 108.612L298.229 117H297.269L294.089 108.612H295.001L297.749 116.088L300.521 108.612H301.409ZM303.439 115.608L302.191 118.752H301.615L302.503 115.608H303.439ZM312.898 115.008H309.082L308.35 117H307.462L310.522 108.72H311.47L314.518 117H313.63L312.898 115.008ZM312.646 114.312L310.99 109.776L309.334 114.312H312.646ZM322.514 108.612L319.334 117H318.374L315.194 108.612H316.106L318.854 116.088L321.626 108.612H322.514ZM324.616 108.612V117H323.776V108.612H324.616ZM327.287 115.608L326.039 118.752H325.463L326.351 115.608H327.287ZM336.422 108.612V109.308H332.726V112.44H335.846V113.136H332.726V117H331.886V108.612H336.422ZM338.644 116.316H341.656V117H337.804V108.612H338.644V116.316ZM349.503 108.612L346.323 117H345.363L342.183 108.612H343.095L345.843 116.088L348.615 108.612H349.503Z" fill="#484848"/>
<g clip-path="url(#clip0_616_14744)">
<path d="M262.933 16H233.214C231.456 16 230 17.4739 230 19.2549V32.2746H271V24.8436L262.933 16Z" fill="#CABDFF"/>
<path d="M262.569 20.9131L262.933 16L271 24.8436L265.48 24.4137C263.782 24.2908 262.448 22.6941 262.569 20.9131Z" fill="#8775F9"/>
<path d="M230 65.7439C230 67.5249 231.456 68.9988 233.214 68.9988H267.846C269.605 68.9988 271.061 67.5249 271.061 65.7439V32.2734H230V65.7439Z" fill="#F0EEFF"/>
<path fill-rule="evenodd" clip-rule="evenodd" d="M241.403 55.8594L240.735 56.2279C240.978 56.6578 241.221 57.0876 241.524 57.4561L242.13 56.9648C241.888 56.6577 241.645 56.2279 241.403 55.8594Z" fill="#8775F9"/>
<path fill-rule="evenodd" clip-rule="evenodd" d="M240.493 53.5859L239.704 53.8316C239.825 54.3229 240.007 54.7528 240.189 55.2441L240.917 54.937C240.796 54.4457 240.614 54.0158 240.493 53.5859Z" fill="#8775F9"/>
<path fill-rule="evenodd" clip-rule="evenodd" d="M240.068 51.1914L239.279 51.2528C239.279 51.7441 239.34 52.2354 239.461 52.7267L240.25 52.6039C240.189 52.1126 240.068 51.6213 240.068 51.1914Z" fill="#8775F9"/>
<path fill-rule="evenodd" clip-rule="evenodd" d="M246.861 60.5273L246.558 61.2643C246.982 61.4485 247.467 61.5714 247.953 61.6942L248.135 60.8958C247.71 60.8344 247.285 60.7116 246.861 60.5273Z" fill="#8775F9"/>
<path fill-rule="evenodd" clip-rule="evenodd" d="M244.738 59.4219L244.313 60.0974C244.738 60.3431 245.102 60.6501 245.587 60.8344L245.951 60.0974C245.466 59.9132 245.102 59.6675 244.738 59.4219Z" fill="#8775F9"/>
<path fill-rule="evenodd" clip-rule="evenodd" d="M242.857 57.8242L242.251 58.3769C242.554 58.7454 242.979 59.0525 243.282 59.421L243.767 58.8068C243.525 58.4384 243.161 58.1927 242.857 57.8242Z" fill="#8775F9"/>
<path fill-rule="evenodd" clip-rule="evenodd" d="M254.018 60.5879L254.26 61.3248C254.503 61.2634 254.745 61.1406 254.927 61.0792L255.595 60.7721L255.231 60.0352L254.624 60.3422C254.442 60.4036 254.2 60.5265 254.018 60.5879Z" fill="#8775F9"/>
<path fill-rule="evenodd" clip-rule="evenodd" d="M251.651 61.1402L251.712 61.9386C252.197 61.8772 252.682 61.8157 253.168 61.6929L252.986 60.8945C252.561 61.0174 252.076 61.0788 251.651 61.1402Z" fill="#8775F9"/>
<path fill-rule="evenodd" clip-rule="evenodd" d="M249.226 61.1406L249.104 61.939C249.59 62.0004 250.075 62.0004 250.56 62.0004V61.202C250.136 61.202 249.711 61.202 249.226 61.1406Z" fill="#8775F9"/>
<path fill-rule="evenodd" clip-rule="evenodd" d="M259.537 55.9794L260.204 56.4093C260.447 55.9794 260.629 55.5495 260.871 55.1196L260.144 54.8125C259.901 55.1196 259.78 55.6109 259.537 55.9794Z" fill="#8775F9"/>
<path fill-rule="evenodd" clip-rule="evenodd" d="M258.081 57.9453L258.627 58.498L259.112 57.9453C259.294 57.761 259.415 57.5768 259.537 57.3312L258.87 56.8398C258.748 57.0241 258.627 57.2083 258.445 57.3926L258.081 57.9453Z" fill="#8775F9"/>
<path fill-rule="evenodd" clip-rule="evenodd" d="M256.201 59.4781L256.626 60.1536C257.05 59.908 257.414 59.6009 257.778 59.2938L257.293 58.6797C256.929 58.9868 256.565 59.2324 256.201 59.4781Z" fill="#8775F9"/>
<path fill-rule="evenodd" clip-rule="evenodd" d="M260.81 48.8557L261.598 48.7328C261.538 48.2415 261.356 47.7502 261.295 47.3203L260.567 47.566C260.628 47.9344 260.749 48.3643 260.81 48.8557Z" fill="#8775F9"/>
<path fill-rule="evenodd" clip-rule="evenodd" d="M260.932 51.3109L261.72 51.3724L261.781 50.6354L261.72 49.8984H260.932V50.6354V51.3109Z" fill="#8775F9"/>
<path fill-rule="evenodd" clip-rule="evenodd" d="M260.507 53.7077L261.235 53.9533C261.356 53.462 261.477 53.0321 261.538 52.5408L260.749 52.418C260.749 52.8479 260.628 53.2778 260.507 53.7077Z" fill="#8775F9"/>
<path fill-rule="evenodd" clip-rule="evenodd" d="M257.293 42.5911L257.778 41.977C257.414 41.6699 256.99 41.3628 256.626 41.1172L256.201 41.7927C256.565 41.977 256.929 42.284 257.293 42.5911Z" fill="#8775F9"/>
<path fill-rule="evenodd" clip-rule="evenodd" d="M258.93 44.373L259.597 43.8817C259.476 43.6975 259.294 43.4518 259.173 43.2676L258.687 42.7148L258.142 43.2676L258.627 43.7589C258.687 44.0045 258.809 44.1888 258.93 44.373Z" fill="#8775F9"/>
<path fill-rule="evenodd" clip-rule="evenodd" d="M260.144 46.46L260.871 46.153C260.629 45.7231 260.508 45.2318 260.204 44.8633L259.537 45.2932C259.78 45.6617 259.901 46.0916 260.144 46.46Z" fill="#8775F9"/>
<path fill-rule="evenodd" clip-rule="evenodd" d="M250.56 40.0132V39.2148C250.075 39.2148 249.59 39.2148 249.104 39.2763L249.226 40.0746C249.65 40.0746 250.136 40.0746 250.56 40.0132Z" fill="#8775F9"/>
<path fill-rule="evenodd" clip-rule="evenodd" d="M252.986 40.3214L253.168 39.523C252.682 39.4002 252.197 39.3388 251.712 39.2773L251.651 40.0757C252.076 40.1985 252.561 40.1985 252.986 40.3214Z" fill="#8775F9"/>
<path fill-rule="evenodd" clip-rule="evenodd" d="M255.231 41.1803L255.595 40.4433L254.927 40.1363C254.685 40.0135 254.503 39.952 254.26 39.8906L254.018 40.6276C254.2 40.689 254.442 40.7504 254.624 40.8732L255.231 41.1803Z" fill="#8775F9"/>
<path fill-rule="evenodd" clip-rule="evenodd" d="M243.828 42.4657L243.343 41.8516C242.979 42.22 242.615 42.4657 242.312 42.8956L242.918 43.4483C243.161 43.0798 243.525 42.7728 243.828 42.4657Z" fill="#8775F9"/>
<path fill-rule="evenodd" clip-rule="evenodd" d="M245.89 41.1159L245.526 40.3789C245.101 40.5631 244.677 40.8702 244.252 41.1159L244.677 41.7914C245.101 41.6072 245.465 41.3001 245.89 41.1159Z" fill="#8775F9"/>
<path fill-rule="evenodd" clip-rule="evenodd" d="M248.134 40.3179L247.952 39.5195L247.224 39.7038C246.981 39.7652 246.739 39.888 246.557 39.9494L246.86 40.6864C247.102 40.625 247.284 40.5022 247.527 40.4407L248.134 40.3179Z" fill="#8775F9"/>
<path fill-rule="evenodd" clip-rule="evenodd" d="M240.25 48.7311L239.461 48.5469C239.401 49.0382 239.279 49.5295 239.279 50.0208L240.068 50.0822C240.068 49.5909 240.189 49.161 240.25 48.7311Z" fill="#8775F9"/>
<path fill-rule="evenodd" clip-rule="evenodd" d="M240.917 46.3383L240.189 46.0312C240.007 46.4611 239.825 46.9525 239.704 47.4438L240.493 47.6894C240.614 47.1981 240.796 46.7682 240.917 46.3383Z" fill="#8775F9"/>
<path fill-rule="evenodd" clip-rule="evenodd" d="M242.191 44.2491L241.584 43.7578C241.281 44.1263 241.039 44.5562 240.796 44.9861L241.463 45.3546C241.645 44.9861 241.888 44.6176 242.191 44.2491Z" fill="#8775F9"/>
<path d="M246.8 50.6357V46.3367C246.8 45.7226 247.467 45.3541 247.952 45.6612L251.591 47.8106L255.23 49.9601C255.715 50.2672 255.715 51.0041 255.23 51.3112L251.591 53.4607L247.952 55.6102C247.467 55.9172 246.8 55.5488 246.8 54.9346V50.6357Z" fill="#8775F9"/>
<path d="M238.491 21.957L236.55 27.0544H235.64L233.699 21.957H234.609L236.125 26.1946L237.642 21.957H238.491Z" fill="#8775F9"/>
<path d="M240.007 21.957V27.0544H239.158V21.957H240.007Z" fill="#8775F9"/>
<path d="M244.131 22.2641C244.556 22.4483 244.859 22.7554 245.041 23.1853C245.284 23.5538 245.344 24.0451 245.344 24.5364C245.344 25.0277 245.223 25.519 245.041 25.8875C244.859 26.256 244.495 26.5631 244.131 26.7473C243.767 26.9315 243.282 27.0544 242.736 27.0544H241.099V21.957H242.736C243.282 21.957 243.767 22.0184 244.131 22.2641ZM244.131 25.8875C244.434 25.5804 244.616 25.0891 244.616 24.5364C244.616 23.9223 244.434 23.4924 244.131 23.1239C243.828 22.8168 243.343 22.6326 242.797 22.6326H241.948V26.3788H242.736C243.343 26.3788 243.767 26.1946 244.131 25.8875Z" fill="#8775F9"/>
<path d="M247.103 22.6326V24.1065H248.801V24.7821H247.042V26.3788H248.983V27.0544H246.193V21.957H248.983V22.6326H247.103Z" fill="#8775F9"/>
<path d="M251.045 26.8087C250.621 26.5631 250.317 26.256 250.135 25.8875C249.953 25.519 249.771 25.0277 249.771 24.5364C249.771 24.0451 249.893 23.6152 250.135 23.1853C250.378 22.8168 250.681 22.4483 251.045 22.2641C251.47 22.0184 251.894 21.957 252.319 21.957C252.804 21.957 253.229 22.0799 253.653 22.2641C254.078 22.5098 254.381 22.8168 254.563 23.1853C254.806 23.5538 254.927 24.0451 254.927 24.5364C254.927 25.0277 254.866 25.4576 254.624 25.8261C254.381 26.256 254.078 26.5631 253.714 26.7473C253.289 26.993 252.865 27.0544 252.379 27.0544C251.894 27.1158 251.47 26.993 251.045 26.8087ZM253.289 26.1332C253.532 25.9489 253.774 25.7647 253.896 25.4576C254.017 25.1505 254.138 24.8435 254.138 24.475C254.138 24.1065 254.078 23.738 253.896 23.4924C253.774 23.1853 253.532 23.0011 253.289 22.8168C253.047 22.694 252.743 22.5712 252.379 22.5712C252.016 22.5712 251.773 22.6326 251.47 22.8168C251.227 22.9397 250.985 23.1853 250.863 23.4924C250.742 23.7994 250.621 24.1065 250.621 24.475C250.621 24.8435 250.681 25.212 250.863 25.4576C251.045 25.7033 251.227 25.9489 251.47 26.1332C251.712 26.3174 252.016 26.3788 252.379 26.3788C252.743 26.3788 252.986 26.3174 253.289 26.1332Z" fill="#8775F9"/>
</g>
<defs>
<linearGradient id="paint0_linear_616_14744" x1="156.5" y1="94.74" x2="159.816" y2="60.9647" gradientUnits="userSpaceOnUse">
<stop stop-color="#806AF5"/>
<stop offset="1" stop-color="#945BF6"/>
</linearGradient>
<clipPath id="clip0_616_14744">
<rect width="41" height="53" fill="white" transform="translate(230 16)"/>
</clipPath>
</defs>
</svg>
