<svg width="9" height="16" viewBox="0 0 9 16" fill="none" xmlns="http://www.w3.org/2000/svg">
<path d="M2.4146 12.4042C2.4146 11.3455 2.40939 10.2868 2.41982 9.22296C2.41982 9.07693 2.38331 9.03521 2.23729 9.04043C1.6897 9.05086 1.14733 9.04564 0.599739 9.04564C0.495437 9.04564 0.391134 9.03521 0.286832 9.02478C0.151239 9.00914 0.0573664 8.93613 0.0312907 8.79532C0.0104302 8.71188 0 8.62843 0 8.54499C0 7.78358 0 7.02217 0 6.26076C0 5.8592 0.104302 5.7549 0.511082 5.7549C1.08475 5.7549 1.65319 5.74968 2.22686 5.76011C2.36767 5.76011 2.4146 5.72882 2.4146 5.57758C2.40417 4.98827 2.39896 4.39375 2.4146 3.80444C2.45111 2.7562 2.74316 1.80183 3.50456 1.04564C4.10952 0.44068 4.8605 0.138203 5.69492 0.0495454C6.54498 -0.0391118 7.39505 0.0182547 8.25033 0.0182547C8.5163 0.0182547 8.64146 0.132988 8.64146 0.398959C8.65189 1.18123 8.65189 1.95828 8.64146 2.74055C8.63625 2.99088 8.53716 3.08997 8.2764 3.1004C7.73924 3.12126 7.19687 3.12126 6.65971 3.13169C6.05476 3.14212 5.80965 3.38723 5.80443 3.98697C5.79922 4.5137 5.80965 5.04042 5.794 5.56715C5.78879 5.72882 5.84615 5.76011 5.99218 5.7549C6.67014 5.74968 7.3429 5.74968 8.02086 5.74968C8.4485 5.74968 8.54237 5.83834 8.54237 6.26076C8.54237 7.0326 8.54237 7.80966 8.54237 8.5815C8.54237 8.93091 8.46936 9.01957 8.12516 9.02478C7.42112 9.04043 6.72229 9.04043 6.01825 9.03C5.82529 9.02478 5.78357 9.08736 5.78357 9.26989C5.78879 11.2934 5.78879 13.3168 5.78879 15.3351C5.78879 15.9348 5.73142 15.9922 5.13168 15.9922C4.39113 15.9922 3.65059 15.9922 2.91004 15.9922C2.51369 15.9922 2.4146 15.8931 2.4146 15.4968C2.4146 14.4746 2.4146 13.4368 2.4146 12.4042Z" fill="#4B6AB2"/>
</svg>
