<svg width="16" height="16" viewBox="0 0 16 16" fill="none" xmlns="http://www.w3.org/2000/svg">
<g clip-path="url(#clip0_616_13861)">
<path d="M5.65723 16.0005C5.65723 12.5141 5.65723 9.0235 5.65723 5.53707C5.65723 5.47027 5.65723 5.40346 5.65723 5.32413C6.72194 5.32413 7.77414 5.32413 8.84303 5.32413C8.84303 5.8043 8.84303 6.28029 8.84303 6.79386C8.89313 6.7354 8.91401 6.71453 8.93071 6.6853C9.48604 5.7709 10.3253 5.27403 11.3566 5.09866C12.0455 4.98175 12.7386 5.03186 13.4151 5.20305C14.6009 5.4995 15.3315 6.27194 15.6865 7.42434C15.8535 7.96714 15.9328 8.52664 15.9704 9.09449C15.9746 9.16547 15.9913 9.23645 15.9996 9.30743C15.9996 11.5371 15.9996 13.7667 15.9996 15.9964C14.8973 15.9964 13.7908 15.9964 12.6885 15.9964C12.6885 14.2886 12.6927 12.5809 12.6844 10.8732C12.6802 10.3847 12.6593 9.89198 12.5883 9.41181C12.4923 8.7354 12.1666 8.05064 11.1478 7.97549C10.1624 7.90451 9.39418 8.27194 9.1186 9.33666C8.99752 9.80847 8.97247 10.2928 8.97247 10.7772C8.96829 12.5141 8.96829 14.2552 8.96829 15.9922C7.86599 16.0005 6.75952 16.0005 5.65723 16.0005Z" fill="#0279B5"/>
<path d="M0.250488 16.0006C0.254664 15.9338 0.258839 15.867 0.258839 15.796C0.258839 12.3764 0.258839 8.95261 0.258839 5.53299C0.258839 5.46618 0.258839 5.39938 0.258839 5.32422C1.36949 5.32422 2.46761 5.32422 3.59078 5.32422C3.59078 5.38685 3.59078 5.45366 3.59078 5.51629C3.59078 8.94426 3.59078 12.3681 3.59078 15.796C3.59078 15.8628 3.59496 15.9296 3.59496 16.0006C2.48013 16.0006 1.36531 16.0006 0.250488 16.0006Z" fill="#0279B5"/>
<path d="M1.9121 0C2.98099 0 3.84112 0.851775 3.84112 1.91649C3.84112 2.98539 2.97264 3.86639 1.91627 3.86639C0.859906 3.86639 -0.00439453 2.98539 -0.00439453 1.91232C-0.000219167 0.860125 0.859906 0 1.9121 0Z" fill="#0279B5"/>
</g>
<defs>
<clipPath id="clip0_616_13861">
<rect width="16" height="16" fill="white"/>
</clipPath>
</defs>
</svg>
