<svg width="18" height="18" viewBox="0 0 18 18" fill="none" xmlns="http://www.w3.org/2000/svg">
<path d="M9.28809 2H3.0459C2.64629 1.99961 2.25118 2.07791 1.88184 2.23047C1.51249 2.38303 1.1764 2.60687 0.893555 2.88916C0.610707 3.17145 0.385711 3.50694 0.232422 3.87598C0.0791329 4.24502 0.000393771 4.64043 0 5.04004V9.75342C0.000262505 10.1531 0.0791917 10.5488 0.232422 10.918C0.385652 11.2871 0.610694 11.6224 0.893555 11.9048C1.17642 12.1872 1.51145 12.4109 1.88086 12.5635C2.25027 12.7161 2.6462 12.7943 3.0459 12.7939H3.73535C3.74718 12.794 3.75882 12.7968 3.76953 12.8018C3.78024 12.8068 3.78928 12.8142 3.79688 12.8232L5.35547 15.145C5.36287 15.1542 5.37217 15.1619 5.38281 15.167C5.39345 15.1721 5.4052 15.1748 5.41699 15.1748C5.42879 15.1748 5.43955 15.1721 5.4502 15.167C5.46084 15.1619 5.47111 15.1542 5.47852 15.145L7.03711 12.8232C7.0447 12.8142 7.05374 12.8068 7.06445 12.8018C7.07516 12.7968 7.08681 12.794 7.09863 12.7939H9.28906C9.68871 12.7943 10.0847 12.7161 10.4541 12.5635C10.8235 12.4108 11.1586 12.1872 11.4414 11.9048C11.7242 11.6224 11.9484 11.2866 12.1016 10.9175C12.2547 10.5483 12.3339 10.1531 12.334 9.75342V5.04004C12.3337 4.64039 12.2548 4.24508 12.1016 3.87598C11.9483 3.50688 11.7243 3.17148 11.4414 2.88916C11.1585 2.60685 10.8225 2.38299 10.4531 2.23047C10.0837 2.07796 9.68774 1.99948 9.28809 2ZM2.6377 8.40039C2.50283 8.40052 2.36977 8.37376 2.24512 8.32227C2.12047 8.27078 2.00659 8.19537 1.91113 8.1001C1.81567 8.00483 1.74021 7.89164 1.68848 7.76709C1.63674 7.64254 1.61048 7.50889 1.61035 7.37403C1.61048 7.23916 1.63674 7.106 1.68848 6.98145C1.74021 6.8569 1.81567 6.74371 1.91113 6.64844C2.00659 6.55317 2.12047 6.47727 2.24512 6.42578C2.36977 6.37429 2.50283 6.34802 2.6377 6.34815C2.9099 6.34815 3.17169 6.45606 3.36426 6.64844C3.55683 6.84082 3.66477 7.10182 3.66504 7.37403C3.66398 7.64571 3.55577 7.90592 3.36328 8.09766C3.1708 8.28939 2.90938 8.39698 2.6377 8.39698V8.40039ZM6.16602 8.40039C5.89398 8.40013 5.63278 8.29197 5.44043 8.09961C5.24807 7.90726 5.13991 7.64606 5.13965 7.37403C5.13991 7.10199 5.24807 6.84128 5.44043 6.64893C5.63278 6.45657 5.89398 6.34841 6.16602 6.34815C6.30088 6.34802 6.43492 6.37429 6.55957 6.42578C6.68422 6.47727 6.79712 6.55317 6.89258 6.64844C6.98804 6.74371 7.0635 6.8569 7.11523 6.98145C7.16697 7.106 7.1942 7.23916 7.19434 7.37403C7.19328 7.64588 7.0843 7.90638 6.8916 8.09815C6.6989 8.28991 6.43787 8.39724 6.16602 8.39698V8.40039ZM9.69629 8.40039C9.56142 8.40052 9.42739 8.37376 9.30273 8.32227C9.17808 8.27078 9.06519 8.19537 8.96973 8.1001C8.87427 8.00483 8.7988 7.89164 8.74707 7.76709C8.69534 7.64254 8.6681 7.50889 8.66797 7.37403C8.6681 7.23916 8.69534 7.106 8.74707 6.98145C8.7988 6.8569 8.87427 6.74371 8.96973 6.64844C9.06519 6.55317 9.17808 6.47727 9.30273 6.42578C9.42739 6.37429 9.56142 6.34802 9.69629 6.34815C9.96849 6.34815 10.2293 6.45606 10.4219 6.64844C10.6144 6.84082 10.7224 7.10182 10.7227 7.37403C10.7216 7.64571 10.6134 7.90592 10.4209 8.09766C10.2284 8.28939 9.96797 8.39698 9.69629 8.39698V8.40039Z" fill="#9A9FA9"/>
<path d="M15.1299 4.19922H13.3301V10.354C13.262 11.2195 12.8878 12.0321 12.2744 12.6465C11.661 13.2608 10.8488 13.6367 9.9834 13.7061C9.4714 13.7801 8.22168 13.8188 8.22168 13.8188C8.21032 13.8188 8.19857 13.8219 8.18848 13.8271C8.17838 13.8324 8.16965 13.8398 8.16309 13.8491L7.87695 14.3198C8.29671 14.5472 8.76678 14.6663 9.24414 14.666H9.89356C9.90484 14.6661 9.91559 14.6685 9.92578 14.6733C9.93598 14.6782 9.94497 14.6851 9.95215 14.6938L11.4209 16.8818C11.4278 16.8904 11.4373 16.8976 11.4473 16.9023C11.4572 16.9071 11.4675 16.9092 11.4785 16.9092C11.4895 16.9092 11.5008 16.9071 11.5107 16.9023C11.5207 16.8976 11.5292 16.8904 11.5361 16.8818L13.0039 14.6938C13.0111 14.6852 13.0201 14.6782 13.0303 14.6733C13.0405 14.6685 13.0522 14.6661 13.0635 14.666H15.126C15.9153 14.5993 16.6502 14.2364 17.1826 13.6499C17.7151 13.0635 18.0057 12.2969 17.9961 11.5049V7.06396C17.9956 6.30411 17.6937 5.57578 17.1563 5.03857C16.6189 4.50137 15.8897 4.19948 15.1299 4.19922Z" fill="#9A9FA9"/>
</svg>
