<svg width="18" height="19" viewBox="0 0 18 19" fill="none" xmlns="http://www.w3.org/2000/svg">
<path d="M8.94061 1.36719C10.5343 1.36719 12.0627 2.00028 13.1896 3.12718C14.3165 4.25409 14.9496 5.7825 14.9496 7.37619V13.4612H2.93164V7.37619C2.93164 5.7825 3.56473 4.25409 4.69163 3.12718C5.81853 2.00028 7.34693 1.36719 8.94061 1.36719V1.36719Z" fill="#9A9FA9"/>
<path d="M15.881 13.1367H2V14.7107H15.881V13.1367Z" fill="#9A9FA9"/>
<path d="M10.3082 1.368C10.3082 0.612474 9.69576 0 8.94025 0C8.18473 0 7.57227 0.612474 7.57227 1.368C7.57227 2.12352 8.18473 2.736 8.94025 2.736C9.69576 2.736 10.3082 2.12352 10.3082 1.368Z" fill="#9A9FA9"/>
<path d="M6.24316 15.3008C6.24316 16.0169 6.52783 16.7036 7.03418 17.21C7.54053 17.7163 8.22727 18.001 8.94336 18.001C9.65944 18.001 10.3462 17.7163 10.8525 17.21C11.3589 16.7036 11.6436 16.0169 11.6436 15.3008H6.24316Z" fill="#9A9FA9"/>
</svg>
