<svg width="13" height="16" viewBox="0 0 13 16" fill="none" xmlns="http://www.w3.org/2000/svg">
<path d="M2.98201 15.9862C2.92779 15.9445 2.91527 15.882 2.90693 15.8194C2.74843 14.7475 2.60662 13.6713 2.80266 12.5952C2.92362 11.9195 3.11548 11.2563 3.27815 10.589C3.52007 9.60877 3.76199 8.62858 4.00808 7.65256C4.02893 7.57749 4.01642 7.50658 3.98722 7.42733C3.66189 6.57227 3.59932 5.7047 3.99557 4.85799C4.28754 4.22399 4.77555 3.8194 5.49713 3.7485C6.21454 3.67759 6.80683 4.19479 6.85271 4.91638C6.88608 5.45027 6.74009 5.95496 6.58993 6.45548C6.40641 7.06862 6.19369 7.67342 6.02685 8.2949C5.78076 9.20835 6.41892 9.96748 7.27815 10.0592C8.26251 10.1635 9.03415 9.74641 9.65146 9.01231C10.2563 8.28656 10.5607 7.4315 10.6734 6.50136C10.786 5.56289 10.6734 4.65778 10.2479 3.80689C9.7599 2.83087 8.97575 2.19271 7.92049 1.91325C6.69421 1.58374 5.48462 1.63796 4.3209 2.17185C2.71924 2.90595 1.75156 4.56184 1.89338 6.30533C1.9476 6.96852 2.17701 7.56497 2.60662 8.08218C2.69421 8.19063 2.74426 8.2949 2.70255 8.43671C2.61496 8.76622 2.53988 9.09991 2.44812 9.42941C2.37304 9.7047 2.28962 9.73807 2.03519 9.61711C1.43874 9.32931 1.00912 8.86216 0.687955 8.2949C-0.27972 6.56393 -0.187957 4.82462 0.721323 3.1145C1.44291 1.76309 2.59828 0.895523 4.04145 0.432541C5.73488 -0.113862 7.44916 -0.172256 9.14259 0.42837C10.7359 0.995627 11.933 2.0217 12.6004 3.60251C13.0008 4.54516 13.0675 5.52952 12.9382 6.53473C12.7922 7.67759 12.4043 8.72451 11.6953 9.64214C10.8152 10.7808 9.66397 11.4607 8.22497 11.6192C7.56595 11.6901 6.91944 11.6192 6.31465 11.3231C5.95177 11.1437 5.63477 10.9101 5.39285 10.5472C5.24687 11.077 5.08837 11.5775 4.97575 12.0864C4.66293 13.4962 3.9622 14.7183 3.15719 15.8903C3.13217 15.9279 3.0988 15.9612 3.0696 15.9988C3.04458 15.9862 3.01538 15.9862 2.98201 15.9862Z" fill="#E10F0F"/>
</svg>
