<svg width="48" height="57" viewBox="0 0 48 57" fill="none" xmlns="http://www.w3.org/2000/svg">
<g opacity="0.8" filter="url(#filter0_d_616_14473)">
<path d="M12 12H30C33.3137 12 36 14.6863 36 18V39C36 42.3137 33.3137 45 30 45H12L12 12Z" fill="white"/>
</g>
<path d="M21.214 27.9803L25.7387 23.4653C25.807 23.3969 25.8881 23.3425 25.9773 23.3054C26.0666 23.2683 26.1623 23.2491 26.2589 23.249C26.3556 23.2488 26.4513 23.2677 26.5407 23.3046C26.6301 23.3415 26.7113 23.3956 26.7797 23.4638C26.918 23.6017 26.9958 23.7888 26.9961 23.984C26.9962 24.0807 26.9773 24.1764 26.9405 24.2658C26.9036 24.3552 26.8495 24.4364 26.7812 24.5048L22.777 28.5001L26.7812 32.4953C26.9117 32.6351 26.9826 32.82 26.9792 33.0111C26.9758 33.2022 26.8982 33.3845 26.7629 33.5194C26.6275 33.6544 26.445 33.7314 26.2539 33.7343C26.0628 33.7372 25.8781 33.6656 25.7387 33.5348L21.214 29.0198C21.1456 28.9516 21.0914 28.8706 21.0544 28.7814C21.0174 28.6922 20.9984 28.5966 20.9984 28.5001C20.9984 28.4035 21.0174 28.3079 21.0544 28.2187C21.0914 28.1295 21.1456 28.0485 21.214 27.9803Z" fill="#9A9FA9"/>
<defs>
<filter id="filter0_d_616_14473" x="0" y="0" width="48" height="57" filterUnits="userSpaceOnUse" color-interpolation-filters="sRGB">
<feFlood flood-opacity="0" result="BackgroundImageFix"/>
<feColorMatrix in="SourceAlpha" type="matrix" values="0 0 0 0 0 0 0 0 0 0 0 0 0 0 0 0 0 0 127 0" result="hardAlpha"/>
<feOffset/>
<feGaussianBlur stdDeviation="6"/>
<feComposite in2="hardAlpha" operator="out"/>
<feColorMatrix type="matrix" values="0 0 0 0 0 0 0 0 0 0 0 0 0 0 0 0 0 0 0.15 0"/>
<feBlend mode="normal" in2="BackgroundImageFix" result="effect1_dropShadow_616_14473"/>
<feBlend mode="normal" in="SourceGraphic" in2="effect1_dropShadow_616_14473" result="shape"/>
</filter>
</defs>
</svg>
