<svg width="24" height="24" viewBox="0 0 24 24" fill="none" xmlns="http://www.w3.org/2000/svg">
<circle cx="12" cy="12" r="10" fill="#60D596"/>
<path d="M17.2981 8.07132C17.188 7.95849 17.0565 7.86883 16.9113 7.80761C16.766 7.74638 16.61 7.71484 16.4524 7.71484C16.2948 7.71484 16.1387 7.74638 15.9935 7.80761C15.8482 7.86883 15.7167 7.95849 15.6067 8.07132L10.471 13.2985L8.3281 11.1156C8.21804 11.0028 8.08652 10.9131 7.94128 10.8519C7.79603 10.7907 7.64 10.7591 7.48238 10.7591C7.32476 10.7591 7.16874 10.7907 7.02349 10.8519C6.87825 10.9131 6.74673 11.0028 6.63667 11.1156C6.41194 11.3459 6.28613 11.6549 6.28613 11.9767C6.28613 12.2984 6.41194 12.6075 6.63667 12.8378L9.62738 15.882C9.73739 15.995 9.8689 16.0847 10.0141 16.146C10.1594 16.2073 10.3155 16.2388 10.4731 16.2388C10.6307 16.2388 10.7868 16.2073 10.932 16.146C11.0773 16.0847 11.2088 15.995 11.3188 15.882L17.3002 9.79346C17.5247 9.5629 17.6501 9.25373 17.6497 8.93196C17.6493 8.61019 17.5231 8.30132 17.2981 8.07132Z" fill="white"/>
</svg>
